<?xml version="1.0" encoding="utf-8"?>
<!-- Generator: Adobe Illustrator 21.1.0, SVG Export Plug-In . SVG Version: 6.00 Build 0)  -->
<svg version="1.1" id="Layer_3" xmlns="http://www.w3.org/2000/svg" xmlns:xlink="http://www.w3.org/1999/xlink" x="0px" y="0px"
	 viewBox="0 0 242.3 299" style="enable-background:new 0 0 242.3 299;" xml:space="preserve">
<style type="text/css">
	.st0{fill:#2BD9A4;}
</style>
<g>
	<path class="st0" d="M121.2,299c-1,0-2-0.1-2.9-0.4c-1.7-0.5-42.9-13.7-75.3-65.8C20,196,2.4,132.5,0,78.1c-0.2-3.6,1.7-7.1,4.8-9
		L116,1.5c3.2-1.9,7.2-1.9,10.4,0l111.2,67.7c3.1,1.9,5,5.3,4.8,9c-2.4,54.4-20,118-42.9,154.6c-32.5,52.1-73.6,65.3-75.3,65.8
		C123.2,298.9,122.2,299,121.2,299z M20.3,83.1c3.2,49.9,19.1,106.3,39.6,139.1c15,24.1,32,38.5,43.6,46.4
		c7.8,5.3,14.2,8.3,17.7,9.8c9.1-3.8,37.8-18.3,61.3-56.2c20.4-32.8,36.4-89.2,39.5-139.1L121.2,21.7L20.3,83.1z"/>
</g>
</svg>
