<?xml version="1.0" encoding="utf-8"?>
<!-- Generator: Adobe Illustrator 21.1.0, SVG Export Plug-In . SVG Version: 6.00 Build 0)  -->
<svg version="1.1" id="Слой_3" xmlns="http://www.w3.org/2000/svg" xmlns:xlink="http://www.w3.org/1999/xlink" x="0px" y="0px"
	 viewBox="0 0 300.6 198.8" style="enable-background:new 0 0 300.6 198.8;" xml:space="preserve">
<style type="text/css">
	.st0{fill:#2BD9A4;}
</style>
<g>
	<path class="st0" d="M145.1,117.3c-1.4,0-2.8-0.2-4.1-0.7L8.4,70.4C3.4,68.7,0,64,0,58.6s3.4-10.1,8.4-11.8L141,0.7
		c2.7-0.9,5.6-0.9,8.2,0l132.6,46.1c5,1.7,8.4,6.5,8.4,11.8s-3.4,10.1-8.4,11.8l-132.6,46.1C147.8,117.1,146.4,117.3,145.1,117.3z
		 M50.5,58.6l94.5,32.9l94.5-32.9l-94.5-32.9L50.5,58.6z"/>
</g>
<g>
	<path class="st0" d="M277.8,133.6c-6.9,0-12.5-5.6-12.5-12.5v-20.4c0-6.9,5.6-12.5,12.5-12.5s12.5,5.6,12.5,12.5v20.4
		C290.3,128,284.7,133.6,277.8,133.6z"/>
</g>
<g>
	<path class="st0" d="M220.6,166.6c-6.9,0-12.5-5.6-12.5-12.5V80.9c0-6.9,5.6-12.5,12.5-12.5s12.5,5.6,12.5,12.5v73.3
		C233.1,161,227.5,166.6,220.6,166.6z"/>
</g>
<g>
	<path class="st0" d="M70.9,166.6c-6.9,0-12.5-5.6-12.5-12.5V80.9c0-6.9,5.6-12.5,12.5-12.5S83.4,74,83.4,80.9v73.3
		C83.4,161,77.8,166.6,70.9,166.6z"/>
</g>
<g>
	<path class="st0" d="M145.8,198.8c-43.4,0-87.3-15.1-87.3-43.9c0-6.9,5.6-12.5,12.5-12.5s12.5,5.6,12.5,12.5
		c0,1.5,3.6,6.2,14.3,10.7c12.5,5.2,30,8.2,48.1,8.2c18.1,0,35.6-3,48.1-8.2c10.7-4.5,14.3-9.2,14.3-10.7c0-6.9,5.6-12.5,12.5-12.5
		s12.5,5.6,12.5,12.5C233.1,183.7,189.2,198.8,145.8,198.8z"/>
</g>
<g>
	<path class="st0" d="M277.8,163.1c-12.6,0-22.9-10.3-22.9-22.9s10.3-22.9,22.9-22.9s22.9,10.3,22.9,22.9S290.4,163.1,277.8,163.1z
		 M277.8,138.1c-1.2,0-2.1,1-2.1,2.1s1,2.1,2.1,2.1s2.1-1,2.1-2.1S278.9,138.1,277.8,138.1z"/>
</g>
</svg>
