<?xml version="1.0" ?><!DOCTYPE svg  PUBLIC '-//W3C//DTD SVG 1.1//EN'  'http://www.w3.org/Graphics/SVG/1.1/DTD/svg11.dtd'><svg height="512px" id="Layer_1" style="enable-background:new 0 0 512 512;" version="1.1" viewBox="0 0 512 512" width="512px" xml:space="preserve" xmlns="http://www.w3.org/2000/svg" xmlns:xlink="http://www.w3.org/1999/xlink"><g><rect height="512" style="fill:none;" width="512"/><path d="M256.016,183.328L58.953,127.031c7.719-6.406,16.656-11.484,26.766-14.375l123.797-35.375   c30.375-8.688,62.594-8.688,92.969,0l123.797,35.375c10.109,2.891,19.047,7.969,26.766,14.375L256.016,183.328z M480,183.875   v189.75c0,25.078-16.625,47.125-40.75,54.016l-119.844,34.25c-15.531,4.438-31.422,7.203-47.406,8.313V212.031l201.641-57.594   C477.609,163.547,480,173.469,480,183.875z M440.25,296.031c0-50.828-31.203-71.156-80.516-57.063   c-16.656,4.766-25.016,7.141-41.672,11.906c0,62.828,0,94.266,0,157.094c17.281-4.938,25.906-7.391,43.188-12.328   C408.578,382.109,440.25,343.484,440.25,296.031z M360.656,265.297c-5.266,1.5-7.875,2.266-13.141,3.766   c0,41.609,0,62.422,0,104.031c6.328-1.813,9.484-2.719,15.813-4.531c19.281-5.516,46.547-22.609,46.547-65.281   S384.234,258.563,360.656,265.297z M38.359,154.438L240,212.047v258.156c-15.984-1.109-31.875-3.875-47.406-8.313L72.75,427.641   C48.625,420.75,32,398.703,32,373.625v-189.75C32,173.469,34.391,163.547,38.359,154.438z M151.813,349.594   c0,14.609-8.516,23.75-22.219,19.531c-11.047-3.359-20.5-13.641-22.453-29.938l-29.359-5.406c3,27.25,22.906,51.656,52.016,60.563   c31.125,9.5,53.109-6.781,53.109-33.969c0-19.453-11.969-37.359-29.906-46.688c15.188-3.641,22.781-12.375,22.781-26.266   c0-19.547-17.125-45.813-46.953-54.938c-28.172-8.594-43.391,1.609-48.781,26.438L108,272.219   c1.656-14.016,10.203-18.031,19.969-15.063c10.375,3.172,17.375,11.969,17.375,22.797c0,11.859-8.078,18.391-25.25,12.688   l-3.344,23.703c5.391,0.125,10.031,0.781,13.922,1.953C141.625,321.656,151.813,333.297,151.813,349.594z" style="fill:#525966;"/></g></svg>