<svg xmlns="http://www.w3.org/2000/svg" width="30" height="30" viewBox="0 0 30 30">
  <path fill="#590BBB" d="M40.625,35.625 C40.625,36.66 39.925,37.5 39.0625,37.5 C38.2,37.5 37.5,36.66 37.5,35.625 C37.5,34.59 38.2,33.75 39.0625,33.75 C39.925,33.75 40.625,34.59 40.625,35.625 Z M30.9375,33.75 C30.075,33.75 29.375,34.59 29.375,35.625 C29.375,36.66 30.075,37.5 30.9375,37.5 C31.8,37.5 32.5,36.66 32.5,35.625 C32.5,34.59 31.8,33.75 30.9375,33.75 Z M35,40.44625 C32.03125,38.62875 32.88875,43.065 28.75,41.245 C29.375,43.76 33.1325,44.18625 35,42.67125 C36.8675,44.18625 40.625,43.76 41.25,41.245 C37.11125,43.06625 37.96875,38.63 35,40.44625 Z M50,36.64125 C50,38.8475 48.76875,41.63 46.07625,42.77375 C43.51375,46.86625 39.8575,50 35,50 C30.31375,50 26.4275,46.7725 23.9225,42.77375 C21.23125,41.62875 20,38.84625 20,36.64125 C20,34.1475 21.01375,31.92375 23.35375,31.6925 L23.39125,31.6575 L23.395,31.6325 C23.0825,29.20125 22.9725,25.4825 24.29375,24.07375 C25.00375,23.3175 25.815,23.025 26.8525,23.3675 C28.47,21.16125 31.17,20 34.8175,20 C40.625,20 43.0075,23.02125 45.03875,25.575 C46.155,26.97875 47.5,28.385 50,28.3075 C48.98875,29.255 47.77625,30 46.46,30.55125 C46.52375,30.9275 46.57625,31.30625 46.6125,31.685 C48.925,31.89125 50,34.06625 50,36.64125 Z M46.775,34.30875 C46.48125,34.1175 46.1125,34.16375 45.93625,34.2425 C45.11125,34.60875 44.17875,34.0025 44.17875,33.1 C44.17875,32.50125 44.135,31.90375 44.05375,31.3125 C38.93,32.4725 33.125,31.02375 31.09375,26.97875 C28.125,27.4475 26.28125,29.92375 25.8075,33.255 L25.8025,33.255 C25.69375,34.10875 24.82125,34.57875 24.065,34.2425 C23.88875,34.165 23.52,34.1175 23.225,34.30875 C21.975,35.1225 22.10875,39.53875 25.1675,40.57375 C25.4475,40.66875 25.68375,40.85875 25.83625,41.11125 C27.97125,44.6475 30.855,47.5 35,47.5 C39.1475,47.5 42.03,44.645 44.16375,41.11125 C44.3175,40.85875 44.555,40.66875 44.83375,40.57375 C47.89375,39.5375 48.025,35.11875 46.775,34.30875 Z" opacity=".9" transform="translate(-20 -20)"/>
</svg>
