<?xml version="1.0" standalone="no"?>
<!DOCTYPE svg PUBLIC "-//W3C//DTD SVG 1.1//EN" "http://www.w3.org/Graphics/SVG/1.1/DTD/svg11.dtd" >
<svg xmlns="http://www.w3.org/2000/svg">
<metadata>Generated by IcoMoon</metadata>
<defs>
<font id="icomoon" horiz-adv-x="1024">
<font-face units-per-em="1024" ascent="960" descent="-64" />
<missing-glyph horiz-adv-x="1024" />
<glyph unicode="&#x20;" horiz-adv-x="512" d="" />
<glyph unicode="&#xe900;" glyph-name="logo" horiz-adv-x="781" d="M596.942 208.619c-11.415 21.487-30.888 36.931-44.989 45.66l-2.686 1.343-0.671 2.686c-0.671 1.343-1.343 2.686-1.343 4.029-11.415 36.931-30.216 53.047-30.216 53.047v0c-8.729 8.729-16.115 12.087-17.458 12.758l-4.7 2.014-2.014 5.372v30.888h0.671c1.343 0 2.014 0.671 3.357 0.671 1.343 0.671 2.014 0.671 2.686 1.343l4.7 2.014c22.83 8.729 32.902 27.53 34.917 30.888 1.343 2.686 2.014 5.372 2.686 8.058 0 3.357 2.014 30.216-16.115 55.732-2.686 4.029-6.043 8.058-9.401 11.415l-4.029 4.7 4.029 4.7c4.7 6.043 8.729 13.43 11.415 22.159 29.545 96.021 50.361 155.782 52.375 162.497 2.686 6.715 1.343 14.772-3.357 20.144l-0.671 1.343c-6.715 12.758-32.231 30.216-120.194 39.617l-6.715 0.671v29.545h55.732c12.087 0 21.487 9.401 21.487 21.487v67.819c0 12.087-9.401 21.487-21.487 21.487h-55.732v65.805c0 12.087-9.401 21.487-21.487 21.487h-73.862c-12.087 0-21.487-9.401-21.487-21.487v-65.805h-55.732c-12.087 0-21.487-9.401-21.487-21.487v-67.819c0-12.087 9.401-21.487 21.487-21.487h55.732v-29.545l-6.715-0.671c-87.963-9.401-114.151-26.859-120.194-39.617l-0.671-1.343c-4.7-6.043-6.043-13.43-3.357-20.144 2.014-6.715 22.83-66.476 53.047-161.826 2.686-8.729 6.715-16.115 11.415-22.159l4.029-4.7-4.029-4.7c-3.357-4.029-6.715-7.386-9.401-11.415-17.458-25.516-16.115-52.375-16.115-55.732 0-2.686 1.343-5.372 2.686-8.058 2.014-3.357 12.087-22.159 34.917-30.888l4.7-2.014c0.671-0.671 2.014-1.343 2.686-1.343 0.671-0.671 2.014-0.671 3.357-0.671h0.671v-31.559l-1.343-5.372-4.7-2.014c-1.343-0.671-8.729-4.029-17.458-12.758v0c0 0-18.801-16.115-30.216-53.047-0.671-1.343-1.343-2.686-1.343-4.029l-0.671-2.686-2.686-1.343c-14.101-9.401-33.574-24.173-44.989-45.66-18.13-33.574-11.415-70.505-10.744-74.534 1.343-6.715 6.043-12.087 11.415-14.772l187.342-90.649c5.372-2.686 12.087-2.686 17.458-0.671 5.372-2.014 12.087-2.014 17.458 0.671l187.342 90.649c6.043 2.686 10.072 8.729 11.415 14.772 0 4.029 7.386 40.289-10.744 74.534zM252.475 677.309l48.346 8.058c16.115 2.686 33.574 4.7 51.032 6.043 3.357 0 6.715 1.343 10.072 3.357l3.357 2.686c6.043 4.029 10.072 10.744 10.072 18.13v68.49c0 12.087-9.401 21.487-21.487 21.487h-55.732v24.845h55.732c12.087 0 21.487 9.401 21.487 21.487v65.133h30.888v-65.805c0-12.087 9.401-21.487 21.487-21.487h55.732v-24.173h-55.732c-12.087 0-21.487-9.401-21.487-21.487v-68.49c0-7.386 3.357-14.101 10.072-18.13l3.357-2.686c2.686-2.014 6.715-3.357 10.072-3.357 18.13-1.343 34.917-3.357 51.032-6.043l48.346-8.058-48.346-6.715c-25.516-4.029-55.732-5.372-86.62-5.372-1.343 0-2.014 0-2.686 0-1.343 0-2.014 0-2.686 0-30.888 0-61.104 2.014-86.62 5.372l-49.689 6.715zM262.547 622.248l-4.029 12.758 12.758-2.686c30.216-6.715 69.162-10.072 116.165-10.072 1.343 0 2.014 0 2.686 0 1.343 0 2.014 0 2.686 0 47.003 0 86.62 3.357 116.165 10.072l12.758 2.686-4.029-12.758c-8.729-26.188-19.473-59.761-32.231-100.050-4.029-12.758-13.43-22.159-91.992-22.159-1.343 0-2.686 0-3.357 0-1.343 0-2.014 0-3.357 0-78.563 0-87.963 9.401-91.992 22.159-12.758 39.617-23.502 73.862-32.231 100.050zM286.049 415.433l-3.357 2.686 0.671 4.029c0.671 4.7 2.686 12.087 7.386 18.801 4.029 6.043 10.744 12.758 18.13 18.801l2.686 2.014 3.357-0.671c17.458-3.357 39.617-4.7 71.848-4.7 1.343 0 2.014 0 3.357 0s2.014 0 3.357 0c31.559 0 53.718 1.343 71.848 4.7l3.357 0.671 2.686-2.014c7.386-6.043 14.101-12.758 18.13-18.801 4.7-6.715 6.715-14.101 7.386-18.801l0.671-4.029-3.357-2.686c-2.014-2.014-4.7-3.357-7.386-4.029-5.372-2.014-9.401-3.357-12.758-4.7l-6.043-2.014c-2.686 0-5.372-0.671-7.386-2.014l-1.343-0.671c-18.13-4.029-38.946-6.043-62.447-6.043-2.686 0-4.7 0-7.386 0s-4.7 0-7.386 0c-23.502 0-44.317 2.014-62.447 6.043l-1.343 0.671c-2.014 1.343-4.7 1.343-7.386 2.014l-6.043 2.014c-3.357 1.343-7.386 2.686-12.758 4.7-1.343 0.671-4.029 2.014-6.043 4.029zM449.889 332.842v-15.444l-5.372-0.671c-16.115-2.686-34.917-3.357-53.718-2.686-18.801-0.671-37.603 0.671-53.718 2.686l-5.372 0.671v15.444c0 3.357 0 6.715 0 10.744v12.758l8.058-0.671c17.458-2.014 34.245-2.686 50.361-2.014 16.115 0 32.902 0.671 50.361 2.014l8.058 0.671v-12.758c0.671-4.029 0.671-7.386 1.343-10.744zM285.377 269.723v0c0.671 1.343 1.343 4.029 4.7 8.729l3.357 4.7 5.372-1.343c24.845-7.386 53.718-11.415 84.606-11.415 2.686 0 4.7 0 7.386 0s4.7 0 7.386 0c31.559 0 59.761 4.029 84.606 11.415l5.372 1.343 3.357-4.7c2.686-4.7 4.029-7.386 4.7-8.729v0c4.029-7.386 8.729-16.115 9.401-20.816-7.386-5.372-14.101-9.401-17.458-10.744-18.13-8.058-46.332-16.115-89.978-16.115-2.686 0-5.372 0-8.058 0s-5.372 0-8.058 0c-43.646 0-71.848 8.058-89.978 16.115-2.686 1.343-10.072 5.372-17.458 10.744 2.014 4.7 6.715 13.43 10.744 20.816zM398.185 71.638l-8.058 4.029-8.058-4.029-167.869 81.249v4.7c0 12.087 2.686 22.159 7.386 30.888 4.029 8.058 11.415 15.444 21.487 23.502l4.029 3.357 4.7-3.357c21.487-14.772 61.104-32.231 130.266-32.231 2.686 0 5.372 0 8.058 0s5.372 0 8.058 0c69.162 0 108.779 17.458 130.266 32.231l4.7 3.357 4.029-3.357c10.072-7.386 16.787-15.444 21.487-23.502 4.7-8.729 7.386-18.801 7.386-30.888v-4.7l-167.869-81.249zM390.799-64c-215.544 0-390.799 175.255-390.799 390.127 0 114.822 50.361 222.93 137.652 297.464 10.072 8.729 25.516 7.386 34.245-2.686s7.386-25.516-2.686-34.245c-76.548-65.133-120.866-159.811-120.866-260.532 0-188.685 153.096-341.781 341.781-341.781s341.781 153.096 341.781 341.781c0 100.050-43.646 195.399-120.194 260.532-10.072 8.729-11.415 24.173-2.686 34.245s24.173 11.415 34.245 2.686c87.292-74.534 137.652-182.641 137.652-297.464 0-214.872-175.255-390.127-390.127-390.127z" />
<glyph unicode="&#xe901;" glyph-name="close" d="M124.014-64c-31.889 0-63.779 10.63-88.581 35.433-49.606 49.606-49.606 127.557 0 173.619l779.516 779.516c49.606 49.606 127.557 49.606 173.619 0 49.606-49.606 49.606-127.557 0-173.619l-775.972-779.516c-24.803-24.803-56.692-35.433-88.581-35.433zM899.986-64c-31.889 0-63.779 10.63-88.581 35.433l-775.972 775.972c-46.062 49.606-46.062 127.557 0 177.163 49.606 46.062 127.557 46.062 177.163 0l775.972-779.516c49.606-49.606 49.606-127.557 0-173.619-24.803-24.803-56.692-35.433-88.581-35.433z" />
<glyph unicode="&#xe902;" glyph-name="completed" horiz-adv-x="1563" d="M602.803-64c-16.568 0-32.498 6.372-45.242 18.479l-539.082 539.082c-24.851 24.851-24.851 65.633 0 90.484s64.996 24.851 89.847 0l493.839-493.839 851.953 851.315c24.851 24.851 64.996 24.851 89.847 0s24.851-64.996 0-89.847l-895.92-897.195c-12.744-12.107-29.312-18.479-45.242-18.479z" />
<glyph unicode="&#xe903;" horiz-adv-x="1022" d="M994.050-64h-965.616c-15.544 0-28.434 12.89-28.434 28.434v967.132c0 15.544 12.89 28.434 28.434 28.434h965.616c15.544 0 28.434-12.89 28.434-28.434v-967.132c0-15.923-12.89-28.434-28.434-28.434zM56.868-7.132h908.748v910.264h-908.748v-910.264z" />
<glyph unicode="&#xe904;" horiz-adv-x="1022" d="M688.101 277.207c-6.066 0-12.511 1.896-17.439 6.066l-157.713 123.214-157.334-123.593c-8.72-6.824-20.093-7.961-29.95-3.033s-15.923 14.786-15.923 25.401v626.304c0 15.544 12.511 28.434 28.434 28.434s28.434-12.89 28.434-28.434v-567.541l128.9 101.225c10.236 7.961 24.643 7.961 35.258 0l128.9-101.225v567.541c0 15.544 12.89 28.434 28.434 28.434s28.434-12.89 28.434-28.434v-625.925c0-10.994-6.066-20.852-15.923-25.401-4.17-2.275-8.341-3.033-12.511-3.033z" />
<glyph unicode="&#xe905;" glyph-name="exit" horiz-adv-x="1245" d="M197.123 244.28c-7.597 0-15.194 2.799-21.192 8.797l-167.135 166.735c-11.595 11.595-11.595 30.788 0 42.383l167.135 167.135c11.595 11.595 30.788 11.595 42.383 0s11.595-30.788 0-42.383l-145.943-145.943 145.943-145.943c11.595-11.595 11.595-30.788 0-42.383-5.998-5.598-13.595-8.397-21.192-8.397zM744.109 411.014h-702.126c-16.394 0-29.988 13.595-29.988 29.988s13.595 29.988 29.988 29.988h702.126c16.394 0 29.988-13.595 29.988-29.988s-13.195-29.988-29.988-29.988zM732.514-64c-137.546 0-266.296 53.579-363.458 151.141-11.595 11.595-11.595 30.788 0 42.383s30.788 11.595 42.383 0c85.567-85.966 199.522-133.548 320.675-133.548 249.103 0 452.223 202.721 452.223 452.223 0.4 249.103-202.321 451.824-451.824 451.824-121.153 0-235.108-47.581-320.675-133.548-11.595-11.595-30.788-11.995-42.383 0-11.595 11.595-11.995 30.788 0 42.383 96.762 97.562 225.912 151.141 363.058 151.141 282.29 0 512.2-229.51 512.2-512.2 0-282.29-229.91-511.8-512.2-511.8zM741.71 176.306c-72.772 0-141.545 28.389-192.725 80.369-11.595 11.595-11.595 30.788 0 42.383s30.788 11.595 42.383 0c39.984-40.384 93.563-62.775 150.341-62.775 116.754 0 211.917 95.163 211.917 211.917s-95.163 211.917-211.917 211.917c-56.778 0-110.357-22.391-150.341-62.775-11.595-11.595-30.788-11.995-42.383 0-11.595 11.595-11.995 30.788 0 42.383 51.58 51.98 119.953 80.369 192.725 80.369 149.941 0 271.894-121.952 271.894-271.894-0.4-150.341-122.352-271.894-271.894-271.894z" />
<glyph unicode="&#xe906;" glyph-name="favorites" horiz-adv-x="1072" d="M836.942-64c-7.714 0-15.427 1.928-22.659 5.303l-278.659 146.561-278.659-146.561c-16.392-8.678-36.158-7.232-50.621 3.857-14.945 10.606-22.177 28.927-19.284 47.247l53.032 310.478-225.627 220.324c-13.017 12.535-17.838 31.819-12.053 49.175s20.731 30.373 39.051 32.783l311.925 45.318 139.33 282.516c8.196 16.392 25.070 26.998 43.39 26.998s35.194-10.606 43.39-26.998l138.847-282.516 311.925-45.318c18.32-2.411 33.266-15.427 39.051-32.783s0.964-36.64-12.053-49.657l-225.627-219.842 53.032-310.478c2.893-18.32-4.339-36.158-19.284-47.247-8.196-5.785-18.32-9.16-28.444-9.16zM535.623 191.036c7.714 0 15.427-1.928 22.659-5.303l215.021-112.814-40.979 239.126c-2.893 15.427 2.411 31.819 13.981 42.908l174.041 169.22-240.090 34.712c-15.91 2.411-29.409 12.053-36.158 26.516l-107.51 217.431-108.475-217.431c-7.232-14.463-20.731-24.105-36.158-26.516l-240.090-34.712 174.041-169.22c11.571-11.089 16.392-26.998 13.981-42.908l-40.979-239.126 215.021 112.814c6.267 3.375 13.981 5.303 21.695 5.303z" />
<glyph unicode="&#xe907;" glyph-name="flame" horiz-adv-x="781" d="M388.591-64c-17.771 0-35.542 1.185-53.313 3.159-0.79 0-1.58 0-1.975 0.395-44.23 7.108-195.085 39.886-278.806 175.34-13.427 21.325-45.020 79.772-52.523 161.913-12.637 137.034 48.969 242.079 86.88 292.233 11.847 15.796 31.593 22.905 50.943 18.561 18.956-4.739 33.567-20.14 37.121-39.491 2.369-13.032 16.981-80.562 75.033-112.944-9.083 62.001-9.478 138.613 12.637 222.334 40.281 152.83 135.454 248.003 188.767 291.443 16.191 13.032 38.306 14.612 56.472 4.344 17.771-10.663 27.249-31.198 23.3-51.338-16.191-89.644-7.503-166.257 26.459-226.678 22.115-40.281 48.179-60.421 77.797-84.116 34.357-27.249 73.453-58.447 104.256-119.658 53.708-106.626 53.313-240.895-0.79-341.597-35.542-66.345-93.594-119.658-167.442-153.62-56.867-26.854-120.052-40.281-184.818-40.281zM347.125 37.097c130.715-14.217 253.927 41.465 306.055 139.008 44.625 83.326 31.988 185.607-0.79 250.373-20.93 41.86-47.389 62.791-77.797 86.88-33.172 26.459-70.689 56.472-102.676 113.734-25.274 45.020-40.281 95.568-45.020 150.855-27.249-38.701-52.523-86.88-67.924-145.722-27.249-103.071-12.637-192.716 3.949-249.583 4.344-15.007 1.58-31.593-7.898-43.835-9.478-12.637-24.484-19.745-40.281-19.351-39.491 0.79-76.612 10.268-110.18 28.828-38.701 20.93-65.555 49.759-84.511 78.587-15.401-39.096-25.669-86.88-20.93-140.983 5.529-61.211 28.433-103.466 38.306-118.868 61.606-98.727 174.945-124.396 209.697-129.925z" />
<glyph unicode="&#xe908;" glyph-name="invite" horiz-adv-x="1063" d="M402.236 303.259c-74.556 0-144.511 45.562-196.056 127.942-46.022 72.716-72.255 167.982-72.255 260.487 0 147.732 120.119 268.311 268.311 268.311s268.311-120.579 268.311-268.311c0-92.505-26.233-187.772-72.255-260.487-51.545-82.38-121.499-127.942-196.056-127.942zM402.236 867.955c-97.107 0-176.266-79.159-176.266-176.266 0-152.334 85.602-295.924 176.266-295.924s176.266 144.050 176.266 295.924c0.46 97.107-78.698 176.266-176.266 176.266zM55.227 14.698c-20.71 0-39.579 13.807-44.642 34.977-6.903 28.994-10.585 58.909-10.585 88.823 0 152.795 96.187 291.322 238.857 344.708 23.932 8.744 50.164-3.222 59.369-27.153s-3.222-50.164-27.153-59.369c-107.232-40.040-179.027-143.59-179.027-258.186 0-22.551 2.761-45.102 8.284-66.733 5.983-24.852-8.744-49.704-33.596-55.687-4.142-0.92-7.824-1.381-11.506-1.381zM809.996-64c-25.312 0-46.022 20.71-46.022 46.022v414.202c0 25.312 20.71 46.022 46.022 46.022s46.022-20.71 46.022-46.022v-414.202c0-25.312-20.25-46.022-46.022-46.022zM1017.097 143.101h-414.202c-25.312 0-46.022 20.71-46.022 46.022s20.71 46.022 46.022 46.022h414.202c25.312 0 46.022-20.71 46.022-46.022s-20.25-46.022-46.022-46.022z" />
<glyph unicode="&#xe909;" glyph-name="menu-arrow" horiz-adv-x="608" d="M96.344-64c-24.774 0-49.548 8.258-68.817 27.527-38.538 38.538-38.538 99.097 0 134.882l346.839 346.839-346.839 349.591c-38.538 38.538-38.538 99.097 0 137.634s99.097 38.538 137.634 0l415.656-415.656c19.269-19.269 27.527-41.29 27.527-68.817s-11.011-49.548-27.527-68.817l-415.656-412.903c-19.269-19.269-44.043-30.28-68.817-30.28z" />
<glyph unicode="&#xe90a;" horiz-adv-x="1047" d="M399.097 315.593c-70.892 0-137.284 43.886-187.546 123.78-45.761 72.768-72.393 168.041-72.393 260.689 0 143.285 116.653 259.938 259.938 259.938s259.938-116.653 259.938-259.938c0-93.023-26.256-187.921-72.018-260.689-50.262-79.895-117.029-123.78-187.921-123.78zM399.097 903.736c-112.152 0-203.675-91.522-203.675-203.675 0-171.792 97.149-328.205 203.675-328.205s203.675 156.413 203.675 328.205c0 112.152-91.147 203.675-203.675 203.675z" />
<glyph unicode="&#xe90b;" horiz-adv-x="1047" d="M37.884 15.144c-12.753 0-24.006 8.627-27.382 21.38-6.752 28.507-10.503 57.764-10.503 87.396 0 150.787 94.898 287.695 235.933 340.208 14.629 5.626 30.758-1.875 36.384-16.504s-1.875-30.758-16.504-36.384c-119.279-44.261-199.549-159.789-199.549-287.32 0-25.131 3.001-49.887 9.002-74.268 3.751-15.004-5.626-30.382-20.63-34.133-2.251 0-4.501-0.375-6.752-0.375z" />
<glyph unicode="&#xe90c;" horiz-adv-x="1047" d="M907.347 311.092c-76.894 0-139.159 62.64-139.159 139.159s62.64 139.159 139.159 139.159 139.159-62.64 139.159-139.159-62.64-139.159-139.159-139.159zM907.347 533.521c-45.761 0-82.895-37.134-82.895-82.895s37.134-82.895 82.895-82.895c45.761 0 82.895 37.134 82.895 82.895s-37.134 82.895-82.895 82.895z" />
<glyph unicode="&#xe90d;" horiz-adv-x="1047" d="M532.255-64c-76.894 0-139.159 62.64-139.159 139.159 0 76.894 62.64 139.159 139.159 139.159s139.159-62.64 139.159-139.159c0-76.519-62.64-139.159-139.159-139.159zM532.255 158.429c-45.761 0-82.895-37.134-82.895-82.895s37.134-82.895 82.895-82.895c45.761 0 82.895 37.134 82.895 82.895s-37.134 82.895-82.895 82.895z" />
<glyph unicode="&#xe90e;" horiz-adv-x="1047" d="M1018.374 75.159c0-61.319-49.709-111.027-111.027-111.027s-111.027 49.709-111.027 111.027c0 61.319 49.709 111.027 111.027 111.027s111.027-49.709 111.027-111.027z" />
<glyph unicode="&#xe90f;" horiz-adv-x="1047" d="M907.347-64c-76.894 0-139.159 62.64-139.159 139.159 0 76.894 62.64 139.159 139.159 139.159s139.159-62.64 139.159-139.159c0-76.519-62.64-139.159-139.159-139.159zM907.347 158.429c-45.761 0-82.895-37.134-82.895-82.895s37.134-82.895 82.895-82.895c45.761 0 82.895 37.134 82.895 82.895s-37.134 82.895-82.895 82.895z" />
<glyph unicode="&#xe910;" glyph-name="notification" d="M839.652-64h-655.304c-101.79 0-184.348 82.558-184.348 184.348v655.304c0 101.79 82.558 184.348 184.348 184.348h327.417c32.366 0 58.635-26.268 58.635-58.635s-26.268-58.635-58.635-58.635h-327.417c-37.057 0-67.078-30.021-67.078-67.078v-655.304c0-37.057 30.021-67.078 67.078-67.078h655.304c37.057 0 67.078 30.021 67.078 67.078v327.417c0 32.366 26.268 58.635 58.635 58.635s58.635-26.268 58.635-58.635v-327.417c0-101.79-82.558-184.348-184.348-184.348z" />
<glyph unicode="&#xe911;" glyph-name="opening" horiz-adv-x="785" d="M398.032 525.057c-119.866 0-217.662 97.415-217.662 217.662s97.796 217.281 217.662 217.281c119.866 0 217.662-97.415 217.662-217.662s-97.796-217.281-217.662-217.281zM398.032 902.921c-88.663 0-160.583-71.92-160.583-160.583s71.92-160.583 160.583-160.583 160.583 71.92 160.583 160.583-71.92 160.583-160.583 160.583zM600.092 128.547h-407.926l79.911 446.359c2.664 15.602 17.504 25.876 33.106 23.212s25.876-17.504 23.212-33.106l-67.734-379.386h271.697l-68.114 379.386c-2.664 15.602 7.611 30.442 23.212 33.106s30.442-7.611 33.106-23.212l79.53-446.359zM756.109-64h-727.569c-11.416 0-21.69 6.849-26.256 17.124-4.566 10.655-2.283 22.832 5.708 30.823l183.034 192.547c5.327 5.708 12.938 8.752 20.548 8.752h361.501c7.991 0 15.221-3.044 20.548-8.752l183.034-192.547c7.991-8.372 9.894-20.548 5.708-30.823-4.566-10.274-14.841-17.124-26.256-17.124zM95.132-6.921h594.384l-128.618 135.468h-337.148l-128.618-135.468z" />
<glyph unicode="&#xe912;" d="M138.499 682.628c-76.156 0-138.499 62.343-138.499 138.873s62.343 138.499 138.499 138.499 138.499-62.343 138.499-138.499-61.97-138.873-138.499-138.873zM138.499 904.003c-45.544 0-82.502-36.958-82.502-82.502s36.958-82.502 82.502-82.502 82.502 36.958 82.502 82.502-36.958 82.502-82.502 82.502z" />
<glyph unicode="&#xe913;" d="M622.314 821.501c0-61.028-49.473-110.501-110.501-110.501s-110.501 49.473-110.501 110.501c0 61.028 49.473 110.501 110.501 110.501s110.501-49.473 110.501-110.501z" />
<glyph unicode="&#xe914;" d="M511.813 682.628c-76.529 0-138.499 62.343-138.499 138.499s62.343 138.873 138.499 138.873 138.499-62.343 138.499-138.499-61.97-138.873-138.499-138.873zM511.813 904.003c-45.544 0-82.502-36.958-82.502-82.502s36.958-82.502 82.502-82.502 82.502 36.958 82.502 82.502-36.958 82.502-82.502 82.502z" />
<glyph unicode="&#xe915;" d="M995.628 821.501c0-61.028-49.473-110.501-110.501-110.501s-110.501 49.473-110.501 110.501c0 61.028 49.473 110.501 110.501 110.501s110.501-49.473 110.501-110.501z" />
<glyph unicode="&#xe916;" d="M885.127 682.628c-76.529 0-138.499 62.343-138.499 138.499s62.343 138.873 138.499 138.873 138.499-62.343 138.499-138.499-61.97-138.873-138.499-138.873zM885.127 904.003c-45.544 0-82.502-36.958-82.502-82.502s36.958-82.502 82.502-82.502 82.502 36.958 82.502 82.502-36.958 82.502-82.502 82.502z" />
<glyph unicode="&#xe917;" d="M138.499 309.314c-76.156 0-138.499 62.343-138.499 138.873s62.343 138.499 138.499 138.499 138.499-62.343 138.499-138.499-61.97-138.873-138.499-138.873zM138.499 530.689c-45.544 0-82.502-36.958-82.502-82.502s36.958-82.502 82.502-82.502 82.502 36.958 82.502 82.502-36.958 82.502-82.502 82.502z" />
<glyph unicode="&#xe918;" d="M622.314 448.187c0-61.028-49.473-110.501-110.501-110.501s-110.501 49.473-110.501 110.501c0 61.028 49.473 110.501 110.501 110.501s110.501-49.473 110.501-110.501z" />
<glyph unicode="&#xe919;" d="M511.813 309.314c-76.529 0-138.499 62.343-138.499 138.499s62.343 138.499 138.499 138.499 138.499-62.343 138.499-138.499-61.97-138.499-138.499-138.499zM511.813 530.689c-45.544 0-82.502-36.958-82.502-82.502s36.958-82.502 82.502-82.502 82.502 36.958 82.502 82.502-36.958 82.502-82.502 82.502z" />
<glyph unicode="&#xe91a;" d="M885.127 309.314c-76.529 0-138.499 62.343-138.499 138.499s62.343 138.499 138.499 138.499 138.499-62.343 138.499-138.499-61.97-138.499-138.499-138.499zM885.127 530.689c-45.544 0-82.502-36.958-82.502-82.502s36.958-82.502 82.502-82.502 82.502 36.958 82.502 82.502-36.958 82.502-82.502 82.502z" />
<glyph unicode="&#xe91b;" d="M138.499-64c-76.156 0-138.499 62.343-138.499 138.873 0 76.156 62.343 138.499 138.499 138.499s138.499-62.343 138.499-138.499c0.373-76.529-61.97-138.873-138.499-138.873zM138.499 157.375c-45.544 0-82.502-36.958-82.502-82.502s36.958-82.502 82.502-82.502 82.502 36.958 82.502 82.502c0.373 45.544-36.958 82.502-82.502 82.502z" />
<glyph unicode="&#xe91c;" d="M622.314 74.873c0-61.028-49.473-110.501-110.501-110.501s-110.501 49.473-110.501 110.501c0 61.028 49.473 110.501 110.501 110.501s110.501-49.473 110.501-110.501z" />
<glyph unicode="&#xe91d;" d="M511.813-64c-76.529 0-138.499 62.343-138.499 138.499 0 76.529 62.343 138.499 138.499 138.499s138.499-62.343 138.499-138.499c0.373-76.156-61.97-138.499-138.499-138.499zM511.813 157.375c-45.544 0-82.502-36.958-82.502-82.502s36.958-82.502 82.502-82.502 82.502 36.958 82.502 82.502c0.373 45.544-36.958 82.502-82.502 82.502z" />
<glyph unicode="&#xe91e;" d="M885.127-64c-76.529 0-138.499 62.343-138.499 138.499 0 76.529 62.343 138.499 138.499 138.499s138.499-62.343 138.499-138.499c0.373-76.156-61.97-138.499-138.499-138.499zM885.127 157.375c-45.544 0-82.502-36.958-82.502-82.502s36.958-82.502 82.502-82.502 82.502 36.958 82.502 82.502c0.373 45.544-36.958 82.502-82.502 82.502z" />
<glyph unicode="&#xe91f;" glyph-name="perfomance" horiz-adv-x="1512" d="M58.017-64c-14.504 0-29.008 5.222-40.032 16.245-23.207 22.046-23.787 59.177-1.741 81.804l377.691 393.355c18.565 19.726 48.734 23.787 71.941 9.283l592.354-358.545 341.72 845.308c12.184 29.589 45.833 44.093 75.422 31.909s44.093-45.833 31.909-75.422l-367.248-907.966c-6.382-15.665-19.146-27.848-35.39-33.070s-33.65-3.481-48.154 5.222l-610.919 370.148-345.781-360.286c-11.023-11.603-26.688-17.985-41.772-17.985z" />
<glyph unicode="&#xe920;" horiz-adv-x="917" d="M119.863-64c-17.508 0-34.567 4.489-50.28 13.468-31.425 18.406-50.28 50.729-50.28 87.092v548.587c0 30.976 25.14 56.116 56.116 56.116s56.116-25.14 56.116-56.116v-528.386l661.717 382.036-465.087 268.907c-26.936 15.712-35.914 49.831-20.651 76.766 15.712 26.936 49.831 35.914 76.766 20.651l482.146-278.783c31.425-18.406 50.28-50.729 50.28-87.092s-18.855-69.135-50.28-87.092l-696.284-402.687c-15.712-8.979-32.772-13.468-50.28-13.468z" />
<glyph unicode="&#xe921;" horiz-adv-x="917" d="M180.019 841.932c0-34.215-27.737-61.952-61.952-61.952s-61.952 27.737-61.952 61.952c0 34.215 27.737 61.952 61.952 61.952s61.952-27.737 61.952-61.952z" />
<glyph unicode="&#xe922;" horiz-adv-x="917" d="M118.068 723.865c-65.094 0-118.068 52.973-118.068 118.068s52.973 118.068 118.068 118.068 118.068-52.973 118.068-118.068-52.973-118.068-118.068-118.068zM118.068 847.769c-3.142 0-5.836-2.694-5.836-5.836s2.694-5.836 5.836-5.836 5.836 2.694 5.836 5.836-2.694 5.836-5.836 5.836z" />
<glyph unicode="&#xe923;" d="M512-64c-27.077 0-49.231 22.154-49.231 49.231s22.154 49.231 49.231 49.231c227.938 0 413.538 185.6 413.538 413.538s-185.6 413.538-413.538 413.538c-227.938 0-413.538-185.6-413.538-413.538 0-27.077-22.154-49.231-49.231-49.231s-49.231 22.154-49.231 49.231c0 282.092 229.908 512 512 512s512-229.908 512-512-229.415-512-512-512z" />
<glyph unicode="&#xe924;" d="M196.923 226.462c46.277 0 83.692-37.415 83.692-83.692s-37.415-83.692-83.692-83.692-83.692 37.415-83.692 83.692 37.415 83.692 83.692 83.692zM196.923 324.923c-100.431 0-182.154-81.723-182.154-182.154s81.723-182.154 182.154-182.154 182.154 81.723 182.154 182.154-81.723 182.154-182.154 182.154v0z" />
<glyph unicode="&#xe925;" glyph-name="reportories" horiz-adv-x="796" d="M403.425 497.859c-127.557 0-231.324 103.767-231.324 231.324 0 127.051 103.767 230.818 231.324 230.818s230.818-103.767 230.818-230.818c0-127.557-103.261-231.324-230.818-231.324zM403.425 858.764c-71.877 0-130.088-58.211-130.088-129.582s58.211-129.582 129.582-129.582 129.582 58.211 129.582 129.582-57.704 129.582-129.076 129.582zM624.119 119.237h-445.437l80.989 453.536c5.062 27.334 31.383 46.062 58.717 41s46.062-31.383 41-58.717l-59.729-334.584h203.484l-59.729 335.090c-5.062 27.334 13.161 53.655 41 58.717 27.334 5.062 53.655-13.667 58.717-41l80.989-454.043zM745.095-64h-694.478c-20.247 0-38.47 12.148-46.568 30.877s-4.049 39.988 9.617 54.667l174.632 183.743c9.617 10.124 22.778 15.692 36.445 15.692h345.214c13.667 0 27.334-5.568 36.445-15.692l174.632-183.743c14.173-14.679 17.716-36.445 9.617-54.667s-25.309-30.877-45.556-30.877zM168.558 37.236h458.598l-78.458 82.507h-301.683l-78.458-82.507z" />
<glyph unicode="&#xe926;" glyph-name="traning" horiz-adv-x="1095" d="M583.192-64c-33.646 0-60.952 27.307-60.952 60.952s27.307 60.952 60.952 60.952c215.040 0 390.095 175.055 390.095 390.095s-175.055 390.095-390.095 390.095-390.095-175.055-390.095-390.095c0-33.646-27.307-60.952-60.952-60.952s-60.952 27.307-60.952 60.952c0 282.331 229.669 512 512 512s512-229.669 512-512-229.669-512-512-512zM195.535 444.099c0-37.164-30.127-67.291-67.291-67.291s-67.291 30.127-67.291 67.291c0 37.164 30.127 67.291 67.291 67.291s67.291-30.127 67.291-67.291zM128.244 315.855c-70.705 0-128.244 57.539-128.244 128.244s57.539 128.244 128.244 128.244 128.244-57.539 128.244-128.244-57.539-128.244-128.244-128.244zM128.244 450.438c-3.413 0-6.339-2.926-6.339-6.339s2.926-6.339 6.339-6.339 6.339 2.926 6.339 6.339-2.926 6.339-6.339 6.339z" />
<glyph unicode="&#xe927;" glyph-name="upgrade-arrow" horiz-adv-x="1440" d="M930.409-64c-24.774 0-49.548 8.258-68.817 27.527-38.538 38.538-38.538 99.097 0 134.882l346.839 346.839-346.839 349.591c-38.538 38.538-38.538 99.097 0 137.634s99.097 38.538 137.634 0l415.656-415.656c19.269-19.269 27.527-41.29 27.527-68.817s-11.011-49.548-27.527-68.817l-418.409-412.903c-19.269-19.269-44.043-30.28-66.065-30.28zM1343.312 351.656h-1246.968c-52.301 0-96.344 44.043-96.344 96.344s44.043 96.344 96.344 96.344h1246.968c52.301 0 96.344-44.043 96.344-96.344s-41.29-96.344-96.344-96.344z" />
<glyph unicode="&#xe928;" glyph-name="usermenu-arrow" horiz-adv-x="1740" d="M866.945-64c-40.206 0-80.412 15.077-110.567 46.488l-709.89 709.89c-61.566 61.566-61.566 160.825 0 222.39s160.825 61.566 222.39 0l709.89-709.89c61.566-61.566 61.566-160.825 0-222.39-31.411-31.411-71.617-46.488-111.823-46.488zM873.227-64c-40.206 0-80.412 15.077-110.567 46.488-61.566 61.566-61.566 160.825 0 222.39l709.89 709.89c61.566 61.566 160.825 61.566 222.39 0s61.566-160.825 0-222.39l-709.89-709.89c-31.411-31.411-71.617-46.488-111.823-46.488z" />
<glyph unicode="&#xe929;" glyph-name="workshop" horiz-adv-x="1060" d="M1059.943 450.677h-57.356v451.967h-942.172v-451.967h-57.356v509.323h1056.884zM184.687 65.243c-69.975 0-126.948 56.974-126.948 126.948s56.974 126.948 126.948 126.948 126.948-56.974 126.948-126.948c0-69.975-56.974-126.948-126.948-126.948zM184.687 261.401c-38.237 0-69.592-30.972-69.592-69.592s31.355-69.21 69.592-69.21c38.237 0 69.592 30.972 69.592 69.592s-30.972 69.21-69.592 69.21zM369.757-64h-57.356c0 70.357-57.356 127.331-127.331 127.331-70.357 0-127.331-57.356-127.331-127.331h-57.739c0 102.094 82.975 184.687 184.687 184.687 102.094 0 185.069-82.975 185.069-184.687zM528.824 65.243c-69.975 0-126.948 56.974-126.948 126.948s56.974 126.948 126.948 126.948 126.948-56.974 126.948-126.948c0-69.975-56.974-126.948-126.948-126.948zM528.824 261.401c-38.237 0-69.592-30.972-69.592-69.592s30.972-69.592 69.592-69.592c38.237 0 69.592 30.972 69.592 69.592s-30.972 69.592-69.592 69.592zM713.894-64h-57.356c0 70.357-57.356 127.331-127.331 127.331-70.357 0-127.331-57.356-127.331-127.331h-57.739c0 102.094 82.975 184.687 184.687 184.687s185.069-82.975 185.069-184.687zM872.962 65.243c-69.975 0-126.948 56.974-126.948 126.948s56.974 126.948 126.948 126.948 126.948-56.974 126.948-126.948c0-69.975-56.974-126.948-126.948-126.948zM872.962 261.401c-38.237 0-69.592-30.972-69.592-69.592s30.972-69.592 69.592-69.592c38.237 0 69.592 30.972 69.592 69.592s-30.972 69.592-69.592 69.592zM1058.031-64h-57.356c0 70.357-57.356 127.331-127.331 127.331-70.357 0-127.331-57.356-127.331-127.331h-57.356c0 102.094 82.975 184.687 184.687 184.687s184.687-82.975 184.687-184.687zM446.232 596.361h366.698v-57.356h-366.698v57.356zM292.517 513.768c-29.825 0-53.915 24.090-53.915 53.915s24.090 53.915 53.915 53.915 53.915-24.090 53.915-53.915-24.090-53.915-53.915-53.915zM292.517 571.125c-1.912 0-3.441-1.529-3.441-3.441s1.529-3.441 3.441-3.441 3.441 1.529 3.441 3.441-1.529 3.441-3.441 3.441zM446.232 749.311h366.698v-57.356h-366.698v57.356zM292.517 666.718c-29.825 0-53.915 24.090-53.915 53.915s24.090 53.915 53.915 53.915 53.915-24.090 53.915-53.915-24.090-53.915-53.915-53.915zM292.517 724.075c-1.912 0-3.441-1.529-3.441-3.441s1.529-3.441 3.441-3.441 3.441 1.529 3.441 3.441-1.529 3.441-3.441 3.441z" />
</font>
</defs>
</svg>
