<?xml version="1.0" encoding="utf-8"?>
<!-- Generator: Adobe Illustrator 21.1.0, SVG Export Plug-In . SVG Version: 6.00 Build 0)  -->
<svg version="1.1" id="Слой_3" xmlns="http://www.w3.org/2000/svg" xmlns:xlink="http://www.w3.org/1999/xlink" x="0px" y="0px"
	 viewBox="0 0 222.6 222.6" style="enable-background:new 0 0 222.6 222.6;" xml:space="preserve">
<style type="text/css">
	.st0{display:none;fill:none;stroke:#000000;stroke-width:20;stroke-linecap:round;stroke-miterlimit:10;}
	.st1{display:none;stroke:#201600;stroke-width:20;stroke-linecap:round;stroke-miterlimit:10;}
	.st2{fill:#C5CDD9;}
</style>
<path class="st0" d="M10.9,111.3C10.9,55.4,56.2,10,112.2,10s101.3,45.4,101.3,101.3s-45.4,101.3-101.3,101.3"/>
<circle class="st1" cx="10" cy="112.1" r="15.1"/>
<g>
	<path class="st2" d="M86.7,160.2c-1.7,0-3.5-0.4-5-1.3c-3.1-1.8-5-5.1-5-8.7V74c0-3.6,1.9-6.9,5-8.7c3.1-1.8,6.9-1.8,10,0l66,38.1
		c3.1,1.8,5,5.1,5,8.7c0,3.6-1.9,6.9-5,8.7l-66,38.1C90.1,159.7,88.4,160.2,86.7,160.2z M96.7,91.3v41.6l36-20.8L96.7,91.3z"/>
</g>
<g>
	<path class="st2" d="M111.3,222.6C49.9,222.6,0,172.7,0,111.3S49.9,0,111.3,0s111.3,49.9,111.3,111.3S172.7,222.6,111.3,222.6z
		 M111.3,20C61,20,20,61,20,111.3s41,91.3,91.3,91.3s91.3-41,91.3-91.3S161.6,20,111.3,20z"/>
</g>
</svg>
