<?xml version="1.0" encoding="utf-8"?>
<!-- Generator: Adobe Illustrator 21.1.0, SVG Export Plug-In . SVG Version: 6.00 Build 0)  -->
<svg version="1.1" id="Layer_1" xmlns="http://www.w3.org/2000/svg" xmlns:xlink="http://www.w3.org/1999/xlink" x="0px" y="0px"
	 viewBox="0 0 346.6 245.4" style="enable-background:new 0 0 346.6 245.4;" xml:space="preserve">
<style type="text/css">
	.st0{fill:#C5CDD9;}
</style>
<g>
	<g>
		<path class="st0" d="M173.4,169.2c-19,0-36.7-11.6-50-32.7c-11.9-18.9-18.8-43.6-18.8-67.7c0-37.9,30.9-68.8,68.8-68.8
			c37.9,0,68.8,30.9,68.8,68.8c0,24.1-6.8,48.7-18.8,67.7C210.2,157.6,192.4,169.2,173.4,169.2z M173.4,20
			c-26.9,0-48.8,21.9-48.8,48.8c0,41.3,23.7,80.4,48.8,80.4c25.1,0,48.8-39.1,48.8-80.4C222.2,41.9,200.3,20,173.4,20z"/>
	</g>
	<g>
		<path class="st0" d="M81.8,245.4c-4.5,0-8.6-3-9.7-7.6c-1.8-7.5-2.8-15.2-2.8-22.9c0-39.4,24.8-75.2,61.7-89
			c5.2-1.9,10.9,0.7,12.9,5.9s-0.7,10.9-5.9,12.9c-29.1,10.9-48.7,39.2-48.7,70.3c0,6.1,0.7,12.2,2.2,18.1
			c1.3,5.4-1.9,10.8-7.3,12.1C83.4,245.3,82.6,245.4,81.8,245.4z"/>
	</g>
	<g>
		<path class="st0" d="M265.8,245.4c-0.8,0-1.6-0.1-2.4-0.3c-5.4-1.3-8.6-6.8-7.3-12.1c1.5-5.9,2.2-12,2.2-18.1
			c0-31.1-19.6-59.4-48.7-70.3c-5.2-1.9-7.8-7.7-5.9-12.9c1.9-5.2,7.7-7.8,12.9-5.9c36.9,13.8,61.7,49.6,61.7,89
			c0,7.8-0.9,15.5-2.8,22.9C274.4,242.4,270.3,245.4,265.8,245.4z"/>
	</g>
	<g>
		<path class="st0" d="M268.5,129.9c-5.5,0-10-4.5-10-10s4.5-10,10-10c16.6,0,32.2-26.7,32.2-54.9c0-17.8-14.5-32.2-32.2-32.2
			c-5.5,0-10-4.5-10-10s4.5-10,10-10c28.8,0,52.2,23.4,52.2,52.2c0,17.8-5.1,36.1-13.9,50.1C296.7,121,283.1,129.9,268.5,129.9z"/>
	</g>
	<g>
		<path class="st0" d="M334.9,184.6c-0.8,0-1.6-0.1-2.4-0.3c-5.4-1.3-8.6-6.8-7.3-12.1c1-4,1.5-8.2,1.5-12.3
			c0-21.2-13.3-40.4-33.2-47.9c-5.2-1.9-7.8-7.7-5.9-12.9c1.9-5.2,7.7-7.8,12.9-5.9c27.6,10.3,46.2,37.1,46.2,66.6
			c0,5.8-0.7,11.6-2.1,17.1C343.4,181.6,339.3,184.6,334.9,184.6z"/>
	</g>
	<g>
		<path class="st0" d="M77.6,129.9c-14.6,0-28.2-8.8-38.3-24.8c-8.8-14-13.9-32.3-13.9-50.1c0-28.8,23.4-52.2,52.2-52.2
			c5.5,0,10,4.5,10,10s-4.5,10-10,10c-17.8,0-32.2,14.5-32.2,32.2c0,28.2,15.7,54.9,32.2,54.9c5.5,0,10,4.5,10,10
			S83.1,129.9,77.6,129.9z"/>
	</g>
	<g>
		<path class="st0" d="M11.8,184.6c-4.5,0-8.6-3-9.7-7.6C0.7,171.4,0,165.7,0,159.9c0-29.5,18.6-56.2,46.2-66.6
			c5.2-1.9,10.9,0.7,12.9,5.9c1.9,5.2-0.7,10.9-5.9,12.9C33.3,119.4,20,138.7,20,159.9c0,4.2,0.5,8.3,1.5,12.3
			c1.3,5.4-1.9,10.8-7.3,12.1C13.4,184.5,12.6,184.6,11.8,184.6z"/>
	</g>
</g>
</svg>
