<?xml version="1.0" encoding="utf-8"?>
<!-- Generator: Adobe Illustrator 21.1.0, SVG Export Plug-In . SVG Version: 6.00 Build 0)  -->
<svg version="1.1" id="Layer_1" xmlns="http://www.w3.org/2000/svg" xmlns:xlink="http://www.w3.org/1999/xlink" x="0px" y="0px"
	 viewBox="0 0 306 210.7" style="enable-background:new 0 0 306 210.7;" xml:space="preserve">
<style type="text/css">
	.st0{fill:#C5CDD9;}
</style>
<g>
	<path class="st0" d="M262.5,171.7H123.9c-6.1,0-11.4-4.2-12.8-10.1L76.3,12.8C75,7.4,78.3,2,83.7,0.8c5.4-1.3,10.8,2.1,12,7.5
		l33.6,143.4h127.8L286,37.2c1.3-5.4,6.8-8.6,12.1-7.3c5.4,1.4,8.6,6.8,7.3,12.1l-30.2,119.6C273.7,167.6,268.5,171.7,262.5,171.7z"
		/>
</g>
<g>
	<path class="st0" d="M86,20H10C4.5,20,0,15.5,0,10S4.5,0,10,0h76c5.5,0,10,4.5,10,10S91.5,20,86,20z"/>
</g>
<g>
	<path class="st0" d="M125.7,210.7c-19.9,0-36.2-16.2-36.2-36.2c0-16,10.3-29.9,25.6-34.6c5.3-1.6,10.9,1.4,12.5,6.6
		s-1.4,10.9-6.6,12.5c-6.8,2.1-11.4,8.3-11.4,15.5c0,8.9,7.3,16.2,16.2,16.2s16.2-7.3,16.2-16.2c0-2.6-0.6-5-1.7-7.3
		c-2.5-4.9-0.5-10.9,4.4-13.4c4.9-2.5,10.9-0.5,13.4,4.4c2.5,5,3.9,10.6,3.9,16.3C161.8,194.4,145.6,210.7,125.7,210.7z"/>
</g>
<g>
	<path class="st0" d="M260.7,210.7c-19.9,0-36.2-16.2-36.2-36.2c0-5.6,1.3-11.3,3.9-16.3c2.5-4.9,8.5-6.9,13.4-4.4
		c4.9,2.5,6.9,8.5,4.4,13.4c-1.1,2.3-1.7,4.7-1.7,7.3c0,8.9,7.3,16.2,16.2,16.2s16.2-7.3,16.2-16.2c0-7.2-4.6-13.4-11.4-15.5
		c-5.3-1.6-8.3-7.2-6.6-12.5c1.6-5.3,7.2-8.3,12.5-6.6c15.3,4.7,25.6,18.6,25.6,34.6C296.8,194.4,280.6,210.7,260.7,210.7z"/>
</g>
<g>
	<path class="st0" d="M296,49H152c-5.5,0-10-4.5-10-10s4.5-10,10-10h144c5.5,0,10,4.5,10,10S301.5,49,296,49z"/>
</g>
<g>
	<path class="st0" d="M281,107H169c-5.5,0-10-4.5-10-10s4.5-10,10-10h112c5.5,0,10,4.5,10,10S286.5,107,281,107z"/>
</g>
</svg>
