<?xml version="1.0" encoding="utf-8"?>
<!-- Generator: Adobe Illustrator 21.1.0, SVG Export Plug-In . SVG Version: 6.00 Build 0)  -->
<svg version="1.1" id="Layer_1" xmlns="http://www.w3.org/2000/svg" xmlns:xlink="http://www.w3.org/1999/xlink" x="0px" y="0px"
	 viewBox="0 0 213.1 224.1" style="enable-background:new 0 0 213.1 224.1;" xml:space="preserve">
<style type="text/css">
	.st0{display:none;fill:#EDF0F6;}
	.st1{display:none;fill:#E99B3F;}
	.st2{display:none;opacity:0.15;fill:#FFFFFF;}
	.st3{fill:#E99B3F;}
	.st4{opacity:0.15;fill:#FFFFFF;}
</style>
<polygon class="st0" points="-54.2,-21.2 25.8,58.9 92.7,-8 79.5,-21.2 "/>
<polygon class="st0" points="135.8,-21.2 40.8,73.9 107.6,140.7 269.5,-21.2 "/>
<circle class="st1" cx="106.9" cy="157.3" r="106.7"/>
<path class="st2" d="M25.9,226.8c36-34,104.4-104.8,149.2-151.6c-18.5-15.4-42.3-24.6-68.2-24.6C48,50.6,0.2,98.4,0.2,157.3
	C0.2,183.8,9.9,208.1,25.9,226.8z"/>
<polygon class="st3" points="106.5,0 134.7,25.5 172.4,21.4 180.2,58.5 213.1,77.4 197.6,112 213.1,146.6 180.2,165.5 172.4,202.7 
	134.7,198.6 106.5,224.1 78.4,198.6 40.7,202.7 32.9,165.5 0,146.6 15.5,112 0,77.4 32.9,58.5 40.7,21.4 78.4,25.5 "/>
<polyline class="st4" points="32.9,58.5 40.7,21.4 78.4,25.5 106.5,0 134.7,25.5 172.4,21.4 180.2,58.5 213.1,77.4 197.6,112 
	213.1,146.6 180.2,165.5 "/>
</svg>
