<?xml version="1.0" encoding="utf-8"?>
<!-- Generator: Adobe Illustrator 21.1.0, SVG Export Plug-In . SVG Version: 6.00 Build 0)  -->
<svg version="1.1"
	 id="svg3036" inkscape:version="0.48.5 r10040" sodipodi:docname="New document 1" xmlns:cc="http://creativecommons.org/ns#" xmlns:dc="http://purl.org/dc/elements/1.1/" xmlns:inkscape="http://www.inkscape.org/namespaces/inkscape" xmlns:rdf="http://www.w3.org/1999/02/22-rdf-syntax-ns#" xmlns:sodipodi="http://sodipodi.sourceforge.net/DTD/sodipodi-0.dtd" xmlns:svg="http://www.w3.org/2000/svg"
	 xmlns="http://www.w3.org/2000/svg" xmlns:xlink="http://www.w3.org/1999/xlink" x="0px" y="0px" viewBox="0 0 1000 702"
	 style="enable-background:new 0 0 1000 702;" xml:space="preserve">
<style type="text/css">
	.st0{fill:#2BD9A4;}
</style>
<sodipodi:namedview  bordercolor="#666666" borderopacity="1.0" fit-margin-bottom="0.5" fit-margin-left="0.5" fit-margin-right="0.5" fit-margin-top="0.5" id="base" inkscape:current-layer="layer1" inkscape:cx="1030.9469" inkscape:cy="85.049494" inkscape:document-units="px" inkscape:pageopacity="0.0" inkscape:pageshadow="2" inkscape:window-height="1024" inkscape:window-maximized="0" inkscape:window-width="1052" inkscape:window-x="859" inkscape:window-y="-9" inkscape:zoom="0.39975011" pagecolor="#ffffff" showgrid="false">
	</sodipodi:namedview>
<g id="layer1" transform="translate(18.83164,142.65288)" inkscape:groupmode="layer" inkscape:label="Layer 1">
	<path id="path5" inkscape:connector-curvature="0" class="st0" d="M479.7-142.2c-110.4,0-214.1,23.2-306.4,72.5
		c54,26.9,126.8,48.9,188.8,61.9c2.4-2.4,4.5-4.6,6.5-7.2c-1.2-5.7-3.8-14.6-4.7-19.3c12.7-8.7,52.8-24.9,52.8-24.9l-5.2-48.7
		l21-7.5L452.3-67C589.2-78.6,603.4-18.7,611.4-1.1c67.8-10,136.8-31.6,188.7-60.5C725.9-105.2,612.1-142.2,479.7-142.2z"/>
	<path id="path7" inkscape:connector-curvature="0" class="st0" d="M45.6,33.2c36,11.4,108.5,32.2,231.6,50.9
		c10.5-15.9,59.9-64.1,71.8-78c-96.5-18.5-170.9-50.8-197.8-63C115.7-35.8,75.4-3.8,45.6,33.2z M618.6,98.2
		C762.9,90.4,880.4,60.9,925,45.3c-27.1-37.1-70.1-73.2-105.1-95c-25.1,13.7-92.9,45.4-203.4,62.2C627,39.2,618.6,98.2,618.6,98.2z"
		/>
	<path id="path9" inkscape:connector-curvature="0" class="st0" d="M-18.3,194.7c38.2,0,371.1,0,371.1,0
		c26.5-46,86.6-75.5,86.6-75.5s-39.9-2.4-63.3-3.5c-18,14.5-56.1,51.5-95.5-12.3C196.9,93.1,96,70.1,33,49.6
		C-5.2,102.6-17,154.1-18.3,194.7z M980.7,194.7c-0.5-41.5-15.1-87.8-41.6-129c-27.1,7.7-138.7,42.2-324.5,52.4
		c-4.3,25.8-13.5,54.3-15.4,76.6C615.8,194.6,951.2,194.7,980.7,194.7L980.7,194.7z"/>
	<path id="path11" inkscape:connector-curvature="0" class="st0" d="M-18.2,214.2c15.8-0.2,359.3,0.1,359.3,0.1
		c-8,15.4-14.7,49.4-13.1,67.4c-194.4,17-279.7,48.1-306.9,56.5C1.1,305.4-15.8,265.5-18.2,214.2z M597.2,214.3
		c13.8,0,371.7,0,383.3,0c-2.6,56.5-25.3,101.7-43.7,129.4c-23.2-6.7-140-44.5-319.9-60.8C608.4,271.7,594.3,245,597.2,214.3
		L597.2,214.3z"/>
	<path id="path13" inkscape:connector-curvature="0" class="st0" d="M32.5,355.3c19.7-7.4,128.9-43,297.3-55.4
		c1.2,18.3,7.2,39.5,7.2,39.5s275-0.2,284.1,0c14.2-15.6,6.8-36.8,6.8-36.8c135.8,10.7,272.3,49.9,296.7,58.5
		c-26.9,36.1-69.5,73.7-114.8,100.3c-37.7-14.5-136.5-59.1-268.4-69.7c14.3-20.2,66.9-25,79.8-26.9l0.1-19.2L337,345.5l0.1,19.3
		c0,0,61.1,0.7,75.8,25.4c-164,13.7-249.1,67-259.2,73.6C106.8,436.2,62.2,398,32.5,355.3z"/>
	<path id="path15" inkscape:connector-curvature="0" class="st0" d="M786.7,474.4c-42.6,23.2-98.1,43.6-149.8,55.1v-80.7
		c-18.3,0.2-24,0.6-35.4,0.6c-25.1-0.1-40.3-2.4-52.8-11.4c-13.4-9.6-14.6-24.1-13-30.9C678.8,420.2,786.7,474.4,786.7,474.4
		L786.7,474.4z"/>
	<path id="path17" inkscape:connector-curvature="0" class="st0" d="M315.8,528.3c-53.8-12.6-103.8-32.1-143.6-54
		c43-29.3,130.2-62.1,248-69.5c1.3,4.5,2.5,24.4-12.7,34.3c-20.6,13.3-91.8,9.1-91.8,9.1V528.3z"/>
	<g id="g19" transform="matrix(2.011801,0,0,2.011801,-21.804008,-230.26372)">
		<path id="path21" inkscape:connector-curvature="0" class="st0" d="M185,348.8h26.3v8h-16.5v9.8h15.4v7.9h-15.4v17.3H185V348.8z"
			/>
		<path id="path23" inkscape:connector-curvature="0" class="st0" d="M228.3,348.8v42.9h-9.8v-42.9H228.3z"/>
		<path id="path25" inkscape:connector-curvature="0" class="st0" d="M236.7,349.4c3.6-0.6,8.2-0.9,13.1-0.9
			c8.2,0,13.4,1.5,17.6,4.6c4.5,3.3,7.3,8.6,7.3,16.2c0,8.2-3,13.9-7.1,17.4c-4.5,3.8-11.4,5.5-19.8,5.5c-5,0-8.6-0.3-11-0.6
			L236.7,349.4L236.7,349.4z M246.5,384.5c0.8,0.2,2.2,0.2,3.4,0.2c8.8,0.1,14.5-4.8,14.5-15c0.1-8.9-5.2-13.6-13.5-13.6
			c-2.2,0-3.6,0.2-4.4,0.4L246.5,384.5L246.5,384.5z"/>
		<path id="path27" inkscape:connector-curvature="0" class="st0" d="M306.6,373.6h-15.8v10.2h17.7v8h-27.4v-42.9h26.5v8h-16.8v8.9
			h15.8V373.6z"/>
	</g>
</g>
</svg>
