<?xml version="1.0" encoding="utf-8"?>
<!-- Generator: Adobe Illustrator 21.1.0, SVG Export Plug-In . SVG Version: 6.00 Build 0)  -->
<svg version="1.1" id="Слой_1" xmlns="http://www.w3.org/2000/svg" xmlns:xlink="http://www.w3.org/1999/xlink" x="0px" y="0px"
	 viewBox="0 0 338.6 144.3" style="enable-background:new 0 0 338.6 144.3;" xml:space="preserve">
<style type="text/css">
	.st0{fill:#FFFFFF;}
	.st1{fill:#F6DADD;}
</style>
<g>
	<path class="st0" d="M306.3,4.5h-56.4h-112H73.4c-7.2,0-14.2,2.8-19.4,7.9L13,52.1c-11.3,11-11.3,29.1,0,40L54,132
		c5.2,5,12.2,7.9,19.4,7.9h64.5h112h56.4c15.4,0,27.9-12.5,27.9-27.9V32.4C334.1,17,321.7,4.5,306.3,4.5z"/>
	<path class="st1" d="M306.3,144.3H73.4c-8.5,0-16.5-3.2-22.5-9.1L9.8,95.4C3.5,89.3,0,81,0,72.2c0-8.8,3.5-17.1,9.8-23.3L50.9,9.1
		C57,3.2,65,0,73.4,0h232.8c17.9,0,32.4,14.5,32.4,32.4V112C338.6,129.8,324.1,144.3,306.3,144.3z M73.4,9c-6.1,0-11.9,2.3-16.3,6.6
		L16.1,55.4C11.5,59.8,9,65.8,9,72.2c0,6.4,2.5,12.3,7.1,16.8l41.1,39.8c4.4,4.2,10.2,6.6,16.3,6.6h232.8
		c12.9,0,23.4-10.5,23.4-23.4V32.4c0-12.9-10.5-23.4-23.4-23.4H73.4z"/>
</g>
</svg>
