<svg xmlns="http://www.w3.org/2000/svg" width="30" height="32" viewBox="0 0 30 32">
  <path fill="#0E64A0" d="M40.625,35.875 C40.625,36.91 39.925,37.75 39.0625,37.75 C38.2,37.75 37.5,36.91 37.5,35.875 C37.5,34.84 38.2,34 39.0625,34 C39.925,34 40.625,34.84 40.625,35.875 Z M30.9375,34 C30.075,34 29.375,34.84 29.375,35.875 C29.375,36.91 30.075,37.75 30.9375,37.75 C31.8,37.75 32.5,36.91 32.5,35.875 C32.5,34.84 31.8,34 30.9375,34 Z M50,36.89125 C50,39.0975 48.76875,41.88 46.07625,43.02375 C43.4975,47.1425 39.8425,50.25 35,50.25 C30.32375,50.25 26.4425,47.0475 23.92375,43.02375 C21.23125,41.87875 20,39.09625 20,36.89125 C20,34.325 20.9425,33.10875 21.77125,32.53 C21.28375,30.625 20.48375,26.0975 22.975,23.26875 C24.1475,21.9375 26.055,21.34375 28.125,21.67625 C29.02375,19.76125 32.64,19 35,19 C38.75,19 43.26125,19.80125 46.42625,23.395 C48.8875,26.19 48.48625,30.57125 48.16125,32.48125 C49.00625,33.03875 50,34.255 50,36.89125 Z M38,42.75 L32,42.75 C32,42.75 32.8475,45.10375 35,45.10375 C37.235,45.10375 38,42.75 38,42.75 Z M46.82875,34.615 C41.69125,35.10625 37.10625,30.7925 35.4875,28.0225 C35.38625,29.03375 35.72,31.21875 36.69875,32.21625 C32.73,32.29625 29.405,30.22625 27.37375,27.38125 C26.3275,29.13 25.82125,31.24125 25.82125,33.35 C25.82125,34.2525 24.88875,34.86 24.06375,34.4925 C23.88875,34.41375 23.51875,34.36625 23.225,34.55875 C21.975,35.36875 22.10625,39.7875 25.16625,40.82375 C25.44625,40.91875 25.6825,41.10875 25.83625,41.36125 C26.655,42.71875 27.52875,43.83625 28.44375,44.76375 C29.59625,45.555 29.76375,42.42 30.5275,41.36375 C31.385,40.1775 33.59625,39.95625 35,40.96125 C36.405,39.95625 38.615,40.1775 39.4725,41.36375 C40.23625,42.42125 40.40375,45.55625 41.55625,44.76375 C42.47,43.8375 43.34375,42.71875 44.16375,41.36125 C44.3175,41.10875 44.555,40.91875 44.83375,40.82375 C47.7875,39.82375 48.07875,35.5925 46.82875,34.615 Z" opacity=".9" transform="translate(-20 -19)"/>
</svg>
