<svg xmlns="http://www.w3.org/2000/svg" xmlns:xlink="http://www.w3.org/1999/xlink" width="142" height="35" viewBox="0 0 142 35">
  <defs>
    <polygon id="logo-white-a" points=".131 .019 8.62 .019 8.62 10.371 .131 10.371"/>
  </defs>
  <g fill="none" fill-rule="evenodd">
    <path fill="#FEFEFE" d="M13.4263,29.9399 L13.1598,29.8129 L12.8933,29.9399 L7.2493,27.2049 L7.2508,27.0424 C7.2598,26.6469 7.3428,26.3004 7.4983,26.0089 C7.6403,25.7419 7.8803,25.4774 8.2103,25.2234 L8.3568,25.1089 L8.5078,25.2149 C9.2228,25.7144 10.5608,26.3069 12.8973,26.3069 C12.9893,26.3069 13.0698,26.3004 13.1598,26.2984 C13.2493,26.3004 13.3303,26.3069 13.4218,26.3069 C15.7588,26.3069 17.0988,25.7144 17.8118,25.2149 L17.9618,25.1089 L18.1083,25.2234 C18.4383,25.4774 18.6793,25.7419 18.8213,26.0089 C18.9768,26.3004 19.0618,26.6469 19.0683,27.0424 L19.0728,27.2049 L13.4263,29.9399 Z M9.6118,23.2529 L9.6118,23.2519 C9.6313,23.1984 9.6688,23.1054 9.7673,22.9544 L9.8723,22.8009 L10.0513,22.8554 C10.8888,23.1054 11.8503,23.2359 12.9083,23.2359 C12.9938,23.2359 13.0743,23.2289 13.1598,23.2279 C13.2453,23.2289 13.3258,23.2359 13.4133,23.2359 C14.4713,23.2359 15.4308,23.1054 16.2698,22.8554 L16.4473,22.8009 L16.5523,22.9544 C16.6503,23.1054 16.6873,23.1984 16.7073,23.2519 L16.7073,23.2529 C16.8473,23.5079 16.9918,23.7974 17.0308,23.9579 C16.7908,24.1344 16.5498,24.2694 16.4543,24.3209 C15.8528,24.5944 14.8973,24.8574 13.4218,24.8574 C13.3303,24.8574 13.2473,24.8509 13.1598,24.8499 C13.0723,24.8509 12.9893,24.8574 12.8973,24.8574 C11.4218,24.8574 10.4668,24.5944 9.8653,24.3209 C9.7693,24.2694 9.5288,24.1344 9.2883,23.9579 C9.3278,23.7974 9.4743,23.5079 9.6118,23.2529 Z M15.1533,21.1274 L15.1533,21.6454 L14.9628,21.6739 C14.4148,21.7594 13.7893,21.7909 13.1598,21.7734 C12.5323,21.7909 11.9028,21.7594 11.3583,21.6739 L11.1678,21.6454 L11.1678,21.1274 C11.1748,21.0134 11.1793,20.8989 11.1793,20.7734 L11.1793,20.3439 L11.4573,20.3754 C12.0538,20.4409 12.6133,20.4649 13.1598,20.4539 C13.7083,20.4649 14.2658,20.4409 14.8623,20.3754 L15.1423,20.3439 L15.1423,20.7734 C15.1423,20.8989 15.1448,21.0134 15.1533,21.1274 Z M9.6358,18.3544 L9.5243,18.2619 L9.5508,18.1194 C9.5813,17.9554 9.6488,17.7139 9.8068,17.4854 C9.9533,17.2789 10.1628,17.0569 10.4158,16.8439 L10.5078,16.7694 L10.6243,16.7904 C11.2208,16.9029 11.9638,16.9504 13.0398,16.9504 C13.0813,16.9504 13.1183,16.9489 13.1598,16.9489 C13.2033,16.9489 13.2383,16.9504 13.2798,16.9504 C14.3553,16.9504 15.0988,16.9029 15.6953,16.7904 L15.8113,16.7694 L15.9028,16.8439 C16.1568,17.0569 16.3688,17.2789 16.5128,17.4854 C16.6703,17.7139 16.7403,17.9554 16.7688,18.1194 L16.7948,18.2619 L16.6838,18.3544 C16.6088,18.4189 16.5303,18.4694 16.4453,18.5019 C16.2698,18.5709 16.1303,18.6254 16.0123,18.6704 L15.8068,18.7269 C15.7148,18.7369 15.6318,18.7569 15.5598,18.7914 L15.5048,18.8099 C14.9038,18.9414 14.2003,19.0094 13.4133,19.0094 C13.3258,19.0094 13.2453,19.0014 13.1598,19.0014 C13.0743,19.0014 12.9938,19.0094 12.9083,19.0094 C12.1213,19.0094 11.4173,18.9414 10.8138,18.8099 L10.7618,18.7914 C10.6873,18.7569 10.6043,18.7369 10.5148,18.7269 L10.3093,18.6704 C10.1888,18.6254 10.0488,18.5709 9.8743,18.5019 C9.7908,18.4694 9.7098,18.4189 9.6358,18.3544 Z M8.8423,11.3869 L8.7028,10.9684 L9.1353,11.0599 C10.1453,11.2809 11.4653,11.3944 13.0593,11.3944 C13.0943,11.3944 13.1243,11.3919 13.1598,11.3919 C13.1943,11.3919 13.2253,11.3944 13.2623,11.3944 C14.8533,11.3944 16.1738,11.2809 17.1843,11.0599 L17.6168,10.9684 L17.4773,11.3869 C17.1843,12.2709 16.8143,13.4084 16.3838,14.7554 C16.2488,15.1764 15.9358,15.4984 13.2798,15.4984 L13.1598,15.4984 L13.0398,15.4984 C10.3833,15.4984 10.0708,15.1764 9.9358,14.7554 C9.5048,13.4084 9.1353,12.2709 8.8423,11.3869 Z M8.5123,9.5154 L10.1343,9.2544 C10.6763,9.1669 11.2558,9.0969 11.8568,9.0479 C11.9773,9.0369 12.0908,8.9974 12.1913,8.9319 L12.3158,8.8499 C12.5213,8.7179 12.6418,8.4904 12.6418,8.2454 L12.6418,5.9359 C12.6418,5.5369 12.3178,5.2104 11.9178,5.2104 L10.0383,5.2104 L10.0383,4.3819 L11.9178,4.3819 C12.3178,4.3819 12.6418,4.0559 12.6418,3.6564 L12.6418,1.4504 L13.1598,1.4504 L13.6778,1.4504 L13.6778,3.6564 C13.6778,4.0559 14.0033,4.3819 14.4013,4.3819 L16.2833,4.3819 L16.2833,5.2104 L14.4013,5.2104 C14.0033,5.2104 13.6778,5.5369 13.6778,5.9359 L13.6778,8.2454 C13.6778,8.4904 13.7978,8.7179 14.0053,8.8499 L14.1278,8.9319 C14.2283,8.9974 14.3443,9.0369 14.4648,9.0479 C15.0633,9.0969 15.6433,9.1669 16.1853,9.2544 L17.8073,9.5154 L16.1808,9.7519 C15.3193,9.8764 14.3098,9.9429 13.2623,9.9429 C13.2278,9.9429 13.1943,9.9419 13.1598,9.9419 C13.1243,9.9419 13.0918,9.9429 13.0593,9.9429 C12.0098,9.9429 10.9998,9.8764 10.1388,9.7519 L8.5123,9.5154 Z M20.1023,25.3234 C19.7153,24.6004 19.0573,24.0849 18.5763,23.7779 L18.4888,23.7239 L18.4648,23.6224 C18.4543,23.5744 18.4323,23.5339 18.4148,23.4884 C18.0323,22.2499 17.3898,21.7029 17.3898,21.7029 L17.3898,21.7054 C17.1013,21.4234 16.8408,21.2969 16.8013,21.2794 L16.6483,21.2214 L16.6003,21.0474 L16.6003,20.0039 L16.6263,19.9949 C16.6618,19.9864 16.6988,19.9764 16.7313,19.9644 C16.7668,19.9494 16.7993,19.9304 16.8323,19.9119 L16.9803,19.8514 C17.7413,19.5469 18.0978,18.9314 18.1613,18.8114 C18.2048,18.7249 18.2333,18.6279 18.2398,18.5319 C18.2488,18.4294 18.3033,17.5184 17.7043,16.6574 C17.6123,16.5249 17.5028,16.3934 17.3873,16.2644 L17.2453,16.1064 L17.3783,15.9389 C17.5468,15.7304 17.6713,15.4879 17.7658,15.1959 C18.7888,11.9944 19.4813,9.9724 19.5558,9.7519 C19.6368,9.5154 19.5928,9.2599 19.4373,9.0644 L19.4118,9.0184 C19.1948,8.5834 18.3163,7.9949 15.3523,7.6739 L15.1268,7.6509 L15.1268,6.6604 L17.0093,6.6604 C17.4093,6.6604 17.7323,6.3359 17.7323,5.9359 L17.7323,3.6564 C17.7323,3.2564 17.4093,2.9304 17.0093,2.9304 L15.1268,2.9304 L15.1268,0.7244 C15.1268,0.3259 14.8013,-0.0001 14.4013,-0.0001 L13.1598,-0.0001 L11.9178,-0.0001 C11.5183,-0.0001 11.1923,0.3259 11.1923,0.7244 L11.1923,2.9304 L9.3123,2.9304 C8.9123,2.9304 8.5863,3.2564 8.5863,3.6564 L8.5863,5.9359 C8.5863,6.3359 8.9123,6.6604 9.3123,6.6604 L11.1923,6.6604 L11.1923,7.6509 L10.9673,7.6739 C8.0028,7.9949 7.1243,8.5834 6.9103,9.0184 L6.8818,9.0644 C6.7268,9.2599 6.6828,9.5154 6.7638,9.7519 C6.8398,9.9724 7.5308,11.9944 8.5538,15.1959 C8.6478,15.4879 8.7743,15.7304 8.9408,15.9389 L9.0743,16.1064 L8.9323,16.2644 C8.8163,16.3934 8.7088,16.5249 8.6173,16.6574 C8.0163,17.5184 8.0708,18.4294 8.0798,18.5319 C8.0858,18.6279 8.1143,18.7249 8.1583,18.8114 C8.2218,18.9314 8.5758,19.5469 9.3388,19.8514 L9.4873,19.9119 C9.5203,19.9304 9.5508,19.9494 9.5878,19.9644 C9.6208,19.9764 9.6578,19.9864 9.6928,19.9949 L9.7188,20.0039 L9.7188,21.0474 L9.6708,21.2214 L9.5178,21.2794 C9.4783,21.2969 9.2208,21.4234 8.9298,21.7054 L8.9298,21.7029 C8.9298,21.7029 8.2873,22.2499 7.9048,23.4884 C7.8873,23.5339 7.8653,23.5744 7.8543,23.6224 L7.8323,23.7239 L7.7453,23.7779 C7.2618,24.0849 6.6038,24.6004 6.2173,25.3234 C5.6073,26.4664 5.8343,27.6939 5.8628,27.8279 C5.9068,28.0494 6.0553,28.2394 6.2563,28.3364 L12.5783,31.3979 C12.7573,31.4864 12.9738,31.4889 13.1598,31.4164 C13.3458,31.4889 13.5618,31.4864 13.7413,31.3979 L20.0628,28.3364 C20.2638,28.2394 20.4128,28.0494 20.4583,27.8279 C20.4868,27.6939 20.7143,26.4664 20.1023,25.3234 Z"/>
    <path fill="#FEFEFE" d="M13.1597 34.50535C5.9022 34.50535.0002 28.60435.0002 21.34835.0002 17.48885 1.6882 13.83935 4.6297 11.33085 4.9732 11.03885 5.4912 11.07835 5.7842 11.42285 6.0772 11.76785 6.0357 12.28435 5.6922 12.57885 3.1152 14.77385 1.6377 17.96985 1.6377 21.34835 1.6377 27.70035 6.8072 32.86935 13.1597 32.86935 19.5117 32.86935 24.6797 27.70035 24.6797 21.34835 24.6797 17.96985 23.2042 14.77385 20.6272 12.57885 20.2812 12.28435 20.2397 11.76785 20.5352 11.42285 20.8282 11.07835 21.3437 11.03785 21.6892 11.33085 24.6312 13.83935 26.3187 17.48885 26.3187 21.34835 26.3187 28.60435 20.4147 34.50535 13.1597 34.50535M40.5845 25.54635C39.52 26.59585 38.145 27.08385 36.6935 27.08385 32.938 27.08385 31.2525 24.49435 31.2375 21.77435 31.224 19.05285 32.997 16.34585 36.6935 16.34585 38.084 16.34585 39.43 16.86485 40.4795 17.91385L39.371 18.98035C38.6325 18.25385 37.6555 17.91385 36.6935 17.91385 34.0615 17.91385 32.864 19.85135 32.879 21.76035 32.8945 23.65335 34.018 25.53085 36.6935 25.53085 37.6555 25.53085 38.72 25.13285 39.4455 24.40735L40.5845 25.54635z"/>
    <polygon fill="#FEFEFE" points="49.405 26.876 49.405 22.574 43.931 22.574 43.931 26.876 42.276 26.876 42.276 16.524 43.931 16.524 43.931 21.036 49.405 21.036 49.405 16.524 51.046 16.524 51.046 26.876"/>
    <polygon fill="#FEFEFE" points="61.301 26.876 53.654 26.876 53.654 16.524 61.257 16.524 61.257 18.136 55.311 18.136 55.311 20.93 61.021 20.93 61.021 22.468 55.311 22.468 55.311 25.251 61.301 25.251"/>
    <path fill="#FEFEFE" d="M69.6182 18.81785C69.1287 18.10635 68.1382 17.67935 67.0607 17.66235 65.6702 17.66235 64.6647 18.23885 64.6647 19.22985 64.6647 20.23785 65.8167 20.51835 67.1787 20.71085 69.3077 21.00585 71.3342 21.59735 71.3342 23.91735 71.3187 26.24035 69.2027 27.11485 67.0452 27.11485 65.0627 27.11485 63.5392 26.50785 62.5922 24.76285L63.8342 23.93385C64.5752 25.18985 65.8627 25.63385 67.0607 25.63385 68.3022 25.63385 69.6772 25.22085 69.6772 23.91735 69.6772 22.79385 68.4792 22.41085 67.0297 22.21835 64.9752 21.93835 63.0232 21.41885 63.0232 19.20035 63.0077 17.05735 65.1522 16.22835 67.0147 16.22835 68.5097 16.22835 70.0032 16.58385 70.8752 17.97435L69.6182 18.81785zM79.38285 18.81785C78.89735 18.10635 77.90485 17.67935 76.82735 17.66235 75.43485 17.66235 74.42935 18.23885 74.42935 19.22985 74.42935 20.23785 75.58335 20.51835 76.94335 20.71085 79.07235 21.00585 81.10085 21.59735 81.10085 23.91735 81.08535 26.24035 78.96985 27.11485 76.80985 27.11485 74.82935 27.11485 73.30585 26.50785 72.35935 24.76285L73.60135 23.93385C74.33985 25.18985 75.62735 25.63385 76.82735 25.63385 78.06685 25.63385 79.44185 25.22085 79.44185 23.91735 79.44185 22.79385 78.24635 22.41085 76.79685 22.21835 74.73985 21.93835 72.78785 21.41885 72.78785 19.20035 72.77235 17.05735 74.91685 16.22835 76.78135 16.22835 78.27435 16.22835 79.76935 16.58385 80.64185 17.97435L79.38285 18.81785z"/>
    <polygon fill="#FEFEFE" points="83.101 26.876 83.101 16.524 90.184 16.524 90.184 17.501 84.137 17.501 84.137 21.434 89.963 21.434 89.963 22.41 84.137 22.41 84.137 26.876"/>
    <path fill="#FEFEFE" d="M93.1475 23.5361L98.324 23.5361 95.736 17.6486 93.1475 23.5361zM98.737 24.4831L92.7345 24.4831 91.67 26.8766 90.5745 26.8766 95.218 16.5241 96.254 16.5241 100.8965 26.8766 99.802 26.8766 98.737 24.4831zM110.7378 25.4707C109.6883 26.5232 108.3573 27.0417 106.9648 27.0417 103.3868 27.0417 101.5988 24.6457 101.5828 21.7602 101.5698 18.9347 103.3733 16.3762 106.9648 16.3762 108.3418 16.3762 109.7323 16.8647 110.6353 17.9282L109.9988 18.5642C109.1553 17.7357 108.0753 17.3227 106.9648 17.3227 104.0813 17.3227 102.6193 19.4542 102.6193 21.7452 102.6193 24.1722 104.0813 26.0797 106.9648 26.0797 108.0753 26.0797 109.2448 25.6337 110.0713 24.8087L110.7378 25.4707z"/>
    <polygon fill="#FEFEFE" points="115.18 17.501 111.527 17.501 111.527 16.524 119.869 16.524 119.869 17.501 116.216 17.501 116.216 26.876 115.18 26.876"/>
    <path fill="#FEFEFE" d="M125.68315,26.0947 C128.50965,26.0947 129.87115,23.9482 129.88415,21.7302 C129.88415,19.4082 128.50965,17.3377 125.68315,17.3227 C122.90465,17.3227 121.44065,19.2912 121.46865,21.7302 C121.49915,23.9942 122.86065,26.0947 125.68315,26.0947 M130.91865,21.7302 C130.90515,24.4372 129.18965,27.0687 125.68315,27.0687 C122.16615,27.0687 120.43465,24.4372 120.43465,21.7142 C120.43465,18.8027 122.32765,16.3457 125.68315,16.3457 C129.18965,16.3607 130.93615,18.9652 130.91865,21.7302"/>
    <g transform="translate(133 16.505)">
      <mask id="logo-white-b" fill="#fff">
        <use xlink:href="#logo-white-a"/>
      </mask>
      <path fill="#FEFEFE" d="M1.16455,0.9956 L1.16455,5.5806 L4.71455,5.5806 C6.37155,5.5806 7.16955,4.6036 7.16955,3.3016 C7.16955,2.0021 6.37155,0.9956 4.77605,0.9956 L1.16455,0.9956 Z M8.62055,10.3711 L7.27455,10.3711 L3.84205,6.5566 L1.16455,6.5566 L1.16455,10.3711 L0.13105,10.3711 L0.13105,0.0186 L4.77605,0.0186 C7.07955,0.0186 8.19005,1.5581 8.20555,3.3016 C8.22055,4.9136 7.27455,6.3786 5.08405,6.4811 L8.62055,10.3711 Z" mask="url(#logo-white-b)"/>
    </g>
  </g>
</svg>
