<?xml version="1.0" encoding="utf-8"?>
<!-- Generator: Adobe Illustrator 20.1.0, SVG Export Plug-In . SVG Version: 6.00 Build 0)  -->
<svg version="1.1" id="Layer_1" xmlns="http://www.w3.org/2000/svg" xmlns:xlink="http://www.w3.org/1999/xlink" x="0px" y="0px"
	 viewBox="0 0 219 165" style="enable-background:new 0 0 219 165;" xml:space="preserve">
<style type="text/css">
	.st0{fill:#2EDDA9;}
</style>
<g>
	<path class="st0" d="M206.5,25h-194C5.6,25,0,19.4,0,12.5S5.6,0,12.5,0h194c6.9,0,12.5,5.6,12.5,12.5S213.4,25,206.5,25z"/>
</g>
<g>
	<path class="st0" d="M206.5,95h-194C5.6,95,0,89.4,0,82.5S5.6,70,12.5,70h194c6.9,0,12.5,5.6,12.5,12.5S213.4,95,206.5,95z"/>
</g>
<g>
	<path class="st0" d="M206.5,165h-194C5.6,165,0,159.4,0,152.5S5.6,140,12.5,140h194c6.9,0,12.5,5.6,12.5,12.5S213.4,165,206.5,165z
		"/>
</g>
</svg>
