<?xml version="1.0" encoding="UTF-8"?><!DOCTYPE svg PUBLIC "-//W3C//DTD SVG 1.1//EN" "http://www.w3.org/Graphics/SVG/1.1/DTD/svg11.dtd"><svg xmlns="http://www.w3.org/2000/svg"><defs>
        <linearGradient id="a" x1="50%" x2="50%" y1="0%" y2="100%">
            <stop offset="0%" stop-color="#78ECF7"/>
            <stop offset="100%" stop-color="#43D4ED"/>
        </linearGradient>
    
        <linearGradient id="a" x1="53.057%" x2="53.057%" y1="100%" y2="3.089%">
            <stop offset="0%" stop-color="#FFF"/>
            <stop offset="100%" stop-color="#F6F7FE"/>
        </linearGradient>
    </defs><symbol id="icon-arrow-down" viewBox="0 0 9.2 10">
    <style>
        .st0{fill:#c4d7ed}
    </style>
    <path class="st0" d="M9.2 5.4L8 4.2 5.4 6.8V0H3.8v6.8L1.2 4.2 0 5.4 4.6 10z"/>
</symbol><symbol id="icon-arrow-next" viewBox="0 0 24 22">
    
    <path transform="translate(-1275 -293)" d="M1288.025 293l-2.847 2.828 6.176 6.176H1275v3.992h16.354l-6.176 6.176 2.847 2.828L1299 304z"/>
</symbol><symbol id="icon-arrow-prev" viewBox="0 0 24 22">
    <style>
        .st0{fill:url(#SVGID_1_)}
    </style>
    <linearGradient id="SVGID_1_" gradientUnits="userSpaceOnUse" x1="-304.708" y1="425.455" x2="-304.708" y2="424.455" gradientTransform="matrix(-24 0 0 22 -7301 -9338)">
        <stop offset="0" stop-color="#78ecf7"/>
        <stop offset="1" stop-color="#43d4ed"/>
    </linearGradient>
    <path class="st0" d="M11 22l2.8-2.8L7.6 13H24V9H7.6l6.2-6.2L11 0 0 11z"/>
</symbol><symbol id="icon-bulb" viewBox="0 0 14 24">
    <path d="M14 6.734c0 4.164-3.75 6.98-3.75 10.266H8.258c.001-2.079.997-3.826 1.968-5.513C11.138 9.902 12 8.404 12 6.734 12 3.626 9.483 2 6.996 2 4.513 2 2 3.626 2 6.734c0 1.67.862 3.168 1.774 4.753.971 1.687 1.966 3.434 1.967 5.513H3.75C3.75 13.714 0 10.897 0 6.734 0 2.391 3.498 0 6.996 0 10.498 0 14 2.394 14 6.734zM10 18.5a.5.5 0 0 1-.5.5h-5a.5.5 0 0 1 0-1h5a.5.5 0 0 1 .5.5zm0 2a.5.5 0 0 1-.5.5h-5a.5.5 0 0 1 0-1h5a.5.5 0 0 1 .5.5zm-1.701 3.159c-.19.216-.465.341-.753.341H6.453c-.288 0-.562-.125-.752-.341L4.25 22h5.5l-1.451 1.659z"/>
</symbol><symbol id="icon-check-no" viewBox="0 0 15 15">
    <style>
        .st0{fill:#28c0ee}
    </style>
    <path class="st0" d="M15 12.6L9.8 7.5l5.1-5.2L12.6 0 7.5 5.2 2.3.1 0 2.4l5.2 5.1-5.1 5.2L2.4 15l5.1-5.2 5.2 5.1z"/>
</symbol><symbol id="icon-check-yes" viewBox="0 0 15 12">
    <path d="M12.678 0L5.625 7.229 2.321 4.098 0 6.42l5.625 5.455L15 2.322z"/>
</symbol><symbol id="icon-check" viewBox="0 0 240.6 180.7">
    <style>
        .st0{fill:#020202}
    </style>
    <path class="st0" d="M208.8 0l31.8 31.8L91.8 180.7 0 88.9l31.8-31.8 60 59.9 117-117z"/>
</symbol><symbol id="icon-close" viewBox="0 0 15 15">
    <style>
        .st0{fill:#28c0ee}
    </style>
    <path class="st0" d="M15 12.6L9.8 7.5l5.1-5.2L12.6 0 7.5 5.2 2.3.1 0 2.4l5.2 5.1-5.1 5.2L2.4 15l5.1-5.2 5.2 5.1z"/>
</symbol><symbol id="icon-fb" viewBox="0 0 7 14">
    <path d="M4.389 13.2V6.6H6.34L6.6 4.324H4.389l.003-1.139c0-.593.06-.911.974-.911h1.22V0H4.633c-2.345 0-3.17 1.103-3.17 2.96v1.365H0v2.274h1.462V13.2H4.39z"/>
</symbol><symbol id="icon-gift" viewBox="0 0 20 22">
    
    <path stroke-width=".5" d="M27.79 20.745c-.76-.564-1.563-.81-2.386-.73-.698.066-1.263.301-1.681.698-.406.386-.64.9-.678 1.486-.05.773.26 1.616.847 2.313l.032.036H21v5.682h.696V40h16.608v-9.77H39v-5.682h-2.924l.032-.036c.588-.697.897-1.54.847-2.313a2.204 2.204 0 0 0-.678-1.486c-.418-.397-.983-.632-1.681-.699-.823-.078-1.626.167-2.386.73-.56.415-1.096 1.004-1.595 1.752-.236.355-.442.712-.615 1.04a11.737 11.737 0 0 0-.615-1.04c-.499-.748-1.035-1.337-1.595-1.751zm-5.365 5.686v-.429h15.15v2.774h-15.15v-2.345zm6.594 3.8h1.962v2.914L30 32.682l-.981.463V30.23zm-4.047-6.668c-.342-.405-.53-.879-.506-1.27a.754.754 0 0 1 .228-.516c.18-.17.471-.28.843-.315.472-.045.932.103 1.407.453.424.311.844.775 1.249 1.378.291.434.532.879.716 1.255h-2.314c-.651-.166-1.225-.514-1.623-.985zM36.88 38.546H23.12V30.23h4.475v5.191L30 34.284l2.405 1.137v-5.19h4.475v8.315zm-5.087-15.232c.406-.608.828-1.077 1.254-1.393.478-.354.941-.504 1.416-.46.372.037.663.146.843.316.137.13.214.305.228.517.025.39-.164.865-.506 1.269-.398.471-.972.819-1.623.985h-2.314c.18-.37.416-.804.702-1.234z" transform="translate(-20 -19)"/>
</symbol><symbol id="icon-horse-chess" viewBox="0 0 20 31.5">
    <path d="M18.6 27.2l-.1-.3c0-.4-.3-.8-.8-.8h-.4c0-.5-.1-.9 0-1.3.4-1.9.9-3.8 1.5-5.6 1-3 1.5-6.1.6-9.2-1.1-3.5-3.2-6-6.8-7.1-.3-.1-.5-.3-.6-.5-.5-.8-1.1-1.6-2-2.3 0 .4-.1.7-.1.9v1.2c.1.4-.1.8-.7.8-.3 0-.7.2-1 .2 0 1.2 0 1.2-1.1 1.7-.3.1-.7.2-1 .4-.3.2-.5.4-.7.7-.5.5-.9 1.1-1.4 1.6-1.1 1-2.2 1.9-3.3 2.8-.5.4-.9.8-.6 1.4.1.2 0 .5-.1.7-.1.7.5 1.9 1.1 2.3 1.6.8 2.8.5 4-.7.6-.6 1.2-.8 2-.5 1.1.4 2.3.7 3.6.4-.3.3-.4.5-.6.6-1.5 1.6-3 3.2-4.2 5.1-.9 1.5-1.6 3.1-1.6 4.9 0 .5.1.9.1 1.4h.1c-.4 0-.8.3-.8.8v.3h-.1c-.5 0-.9.4-.9.9v3.5h16.7V28c.1-.4-.3-.8-.8-.8z"/>
</symbol><symbol id="icon-key" viewBox="0 0 24 24">
    <path d="M16 2c3.309 0 6 2.691 6 6s-2.691 6-6 6-6-2.691-6-6 2.691-6 6-6zm0-2a8 8 0 1 0 0 16 8 8 0 0 0 0-16zm-5.405 16.4L9.123 18H6v2H4v2H2v-2.179l5.903-5.976a10.054 10.054 0 0 1-1.038-1.795L0 19v5h6v-2h2v-2h2l2.451-2.663a9.878 9.878 0 0 1-1.856-.937zM18 5c.551 0 1 .449 1 1 0 .551-.449 1-1 1-.551 0-1-.449-1-1 0-.551.449-1 1-1zm0-1a2 2 0 1 0 .001 4.001A2 2 0 0 0 18 4z"/>
</symbol><symbol id="icon-pic" viewBox="0 0 18 24">
    <path d="M14 18.597V19H4v-.417c-.004-1.112.044-1.747 1.324-2.043 1.402-.324 2.787-.613 2.121-1.841C5.473 11.062 6.883 9 9 9c2.077 0 3.521 1.985 1.556 5.699-.647 1.22.688 1.51 2.121 1.841 1.284.297 1.328.936 1.323 2.057zM13 4v2h3v16H2V6h3V4H0v20h18V4h-5zM7 0v6h4V0H7zm2 4a1 1 0 1 1 0-2 1 1 0 0 1 0 2z"/>
</symbol><symbol id="icon-play" viewBox="0 0 24 24">
    <path d="M12 2c5.514 0 10 4.486 10 10s-4.486 10-10 10S2 17.514 2 12 6.486 2 12 2zm0-2C5.373 0 0 5.373 0 12s5.373 12 12 12 12-5.373 12-12S18.627 0 12 0zM9 17V7l9 5.146L9 17z"/>
</symbol><symbol id="icon-quote" viewBox="0 0 15.7 12.5">
    <style>
        .st0{fill:#fff}
    </style>
    <path class="st0" d="M7 9.7c0 .8-.3 1.4-.9 2s-1.3.8-2.1.8c-1.3 0-2.3-.4-3-1.3s-1-2-1-3.6c0-1.4.6-2.8 1.8-4.3S4.4.8 6.1 0l.8 1.2c-1.4.9-2.4 1.6-3.2 2.5S2.6 5.6 2.4 6.8h1c.7 0 1.3.1 1.8.2s.8.4 1.1.7c.3.3.5.6.6.9s.1.7.1 1.1zm8.7 0c0 .8-.3 1.4-.9 2s-1.3.8-2.1.8c-1.3 0-2.3-.4-3-1.3s-1-2-1-3.6c0-1.4.6-2.8 1.8-4.3C11.7 1.9 13.1.8 14.8 0l.8 1.2c-1.3.6-2.4 1.4-3.1 2.2s-1.2 1.9-1.3 3.1h1c.7 0 1.3.1 1.8.2s.8.4 1.1.7c.3.3.5.6.6.9s0 1 0 1.4z"/>
</symbol><symbol id="icon-share" viewBox="0 0 16 10">
    <title/>
    <path d="M16 5l-6-5v3C5.5 3 2 4 0 9c3-2.5 6-3 10-2v3l6-5z"/>
</symbol><symbol id="icon-twitter" viewBox="0 0 24 24">
    <path d="M24 4.3c-.898.4-1.8.7-2.8.802 1-.602 1.8-1.602 2.198-2.704-1 .602-2 1-3.097 1.204C19.3 2.602 18 2 16.6 2A4.907 4.907 0 0 0 11.7 6.898c0 .403 0 .801.102 1.102-4.102-.2-7.7-2.102-10.102-5.102C1.2 3.602 1 4.5 1 5.398c0 1.704.898 3.204 2.2 4.102-.802-.102-1.598-.3-2.2-.602V9c0 2.398 1.7 4.398 3.898 4.8-.398.098-.796.2-1.296.2-.301 0-.602 0-.903-.102.602 2 2.403 3.403 4.602 3.403-1.7 1.3-3.801 2.097-6.102 2.097-.398 0-.8 0-1.199-.097C2.2 20.699 4.8 21.5 7.5 21.5c9.102 0 14-7.5 14-14v-.602c1-.699 1.8-1.597 2.5-2.597"/>
</symbol><symbol id="icon-youtube" viewBox="0 0 43.1 32">
    <path d="M41.9 5.5c-.4-2.2-2.3-3.8-4.5-4.3C34.1.5 28 0 21.4 0S8.6.5 5.3 1.2c-2.2.5-4.1 2-4.5 4.3C.4 8 0 11.5 0 16s.4 8 .9 10.5c.4 2.2 2.3 3.8 4.5 4.3 3.5.7 9.5 1.2 16.1 1.2s12.6-.5 16.1-1.2c2.2-.5 4.1-2 4.5-4.3.4-2.5.9-6.1 1-10.5-.2-4.5-.7-8-1.2-10.5zM16 23V9l12.2 7L16 23z"/>
</symbol></svg>