<?xml version="1.0" encoding="utf-8"?>
<!-- Generator: Adobe Illustrator 19.2.0, SVG Export Plug-In . SVG Version: 6.00 Build 0)  -->
<svg version="1.1" id="Шар_1" xmlns="http://www.w3.org/2000/svg" xmlns:xlink="http://www.w3.org/1999/xlink" x="0px" y="0px"
	 viewBox="0 0 27 35" style="enable-background:new 0 0 27 35;" xml:space="preserve">
<style type="text/css">
	.st0{fill:#FFFFFF;}
</style>
<g>
	<path class="st0" d="M13.4,29.9l-0.3-0.1l-0.3,0.1l-5.6-2.7l0-0.2c0-0.4,0.1-0.7,0.2-1c0.1-0.3,0.4-0.5,0.7-0.8l0.1-0.1l0.2,0.1
		c0.7,0.5,2.1,1.1,4.4,1.1c0.1,0,0.2,0,0.3,0c0.1,0,0.2,0,0.3,0c2.3,0,3.7-0.6,4.4-1.1l0.1-0.1l0.1,0.1c0.3,0.3,0.6,0.5,0.7,0.8
		c0.2,0.3,0.2,0.6,0.2,1l0,0.2L13.4,29.9z M9.6,23.3L9.6,23.3c0-0.1,0.1-0.1,0.2-0.3l0.1-0.2l0.2,0.1c0.8,0.2,1.8,0.4,2.9,0.4
		c0.1,0,0.2,0,0.3,0c0.1,0,0.2,0,0.3,0c1.1,0,2-0.1,2.9-0.4l0.2-0.1l0.1,0.2c0.1,0.2,0.1,0.2,0.2,0.3v0c0.1,0.3,0.3,0.5,0.3,0.7
		c-0.2,0.2-0.5,0.3-0.6,0.4c-0.6,0.3-1.6,0.5-3,0.5c-0.1,0-0.2,0-0.3,0c-0.1,0-0.2,0-0.3,0c-1.5,0-2.4-0.3-3-0.5
		c-0.1-0.1-0.3-0.2-0.6-0.4C9.3,23.8,9.5,23.5,9.6,23.3z M15.2,21.1v0.5l-0.2,0c-0.5,0.1-1.2,0.1-1.8,0.1c-0.6,0-1.3,0-1.8-0.1
		l-0.2,0v-0.5c0-0.1,0-0.2,0-0.4v-0.4l0.3,0c0.6,0.1,1.2,0.1,1.7,0.1c0.5,0,1.1,0,1.7-0.1l0.3,0v0.4C15.1,20.9,15.1,21,15.2,21.1z
		 M9.6,18.4l-0.1-0.1l0-0.1c0-0.2,0.1-0.4,0.3-0.6c0.1-0.2,0.4-0.4,0.6-0.6l0.1-0.1l0.1,0C11.2,16.9,12,17,13,17c0,0,0.1,0,0.1,0
		c0,0,0.1,0,0.1,0c1.1,0,1.8,0,2.4-0.2l0.1,0l0.1,0.1c0.3,0.2,0.5,0.4,0.6,0.6c0.2,0.2,0.2,0.5,0.3,0.6l0,0.1l-0.1,0.1
		c-0.1,0.1-0.2,0.1-0.2,0.1c-0.2,0.1-0.3,0.1-0.4,0.2l-0.2,0.1c-0.1,0-0.2,0-0.2,0.1l-0.1,0c-0.6,0.1-1.3,0.2-2.1,0.2
		c-0.1,0-0.2,0-0.3,0c-0.1,0-0.2,0-0.3,0c-0.8,0-1.5-0.1-2.1-0.2l-0.1,0c-0.1,0-0.2-0.1-0.2-0.1l-0.2-0.1c-0.1,0-0.3-0.1-0.4-0.2
		C9.8,18.5,9.7,18.4,9.6,18.4z M8.8,11.4L8.7,11l0.4,0.1c1,0.2,2.3,0.3,3.9,0.3c0,0,0.1,0,0.1,0c0,0,0.1,0,0.1,0
		c1.6,0,2.9-0.1,3.9-0.3l0.4-0.1l-0.1,0.4c-0.3,0.9-0.7,2-1.1,3.4c-0.1,0.4-0.4,0.7-3.1,0.7h-0.1H13c-2.7,0-3-0.3-3.1-0.7
		C9.5,13.4,9.1,12.3,8.8,11.4z M8.5,9.5l1.6-0.3c0.5-0.1,1.1-0.2,1.7-0.2C12,9,12.1,9,12.2,8.9l0.1-0.1c0.2-0.1,0.3-0.4,0.3-0.6V5.9
		c0-0.4-0.3-0.7-0.7-0.7H10V4.4h1.9c0.4,0,0.7-0.3,0.7-0.7V1.5h0.5h0.5v2.2c0,0.4,0.3,0.7,0.7,0.7h1.9v0.8h-1.9
		c-0.4,0-0.7,0.3-0.7,0.7v2.3c0,0.2,0.1,0.5,0.3,0.6l0.1,0.1C14.2,9,14.3,9,14.5,9c0.6,0,1.2,0.1,1.7,0.2l1.6,0.3l-1.6,0.2
		c-0.9,0.1-1.9,0.2-2.9,0.2c0,0-0.1,0-0.1,0c0,0-0.1,0-0.1,0c-1,0-2.1-0.1-2.9-0.2L8.5,9.5z M20.1,25.3c-0.4-0.7-1-1.2-1.5-1.5
		l-0.1-0.1l0-0.1c0,0,0-0.1,0-0.1c-0.4-1.2-1-1.8-1-1.8v0c-0.3-0.3-0.5-0.4-0.6-0.4l-0.2-0.1l0-0.2v-1l0,0c0,0,0.1,0,0.1,0
		c0,0,0.1,0,0.1-0.1l0.1-0.1c0.8-0.3,1.1-0.9,1.2-1c0-0.1,0.1-0.2,0.1-0.3c0-0.1,0.1-1-0.5-1.9c-0.1-0.1-0.2-0.3-0.3-0.4l-0.1-0.2
		l0.1-0.2c0.2-0.2,0.3-0.5,0.4-0.7c1-3.2,1.7-5.2,1.8-5.4c0.1-0.2,0-0.5-0.1-0.7l0,0c-0.2-0.4-1.1-1-4.1-1.3l-0.2,0v-1H17
		c0.4,0,0.7-0.3,0.7-0.7V3.7c0-0.4-0.3-0.7-0.7-0.7h-1.9V0.7c0-0.4-0.3-0.7-0.7-0.7h-1.2h-1.2c-0.4,0-0.7,0.3-0.7,0.7v2.2H9.3
		c-0.4,0-0.7,0.3-0.7,0.7v2.3c0,0.4,0.3,0.7,0.7,0.7h1.9v1l-0.2,0C8,8,7.1,8.6,6.9,9l0,0C6.7,9.3,6.7,9.5,6.8,9.8
		C6.8,10,7.5,12,8.6,15.2c0.1,0.3,0.2,0.5,0.4,0.7l0.1,0.2l-0.1,0.2c-0.1,0.1-0.2,0.3-0.3,0.4c-0.6,0.9-0.5,1.8-0.5,1.9
		c0,0.1,0,0.2,0.1,0.3c0.1,0.1,0.4,0.7,1.2,1l0.1,0.1c0,0,0.1,0,0.1,0.1c0,0,0.1,0,0.1,0l0,0v1l0,0.2l-0.2,0.1c0,0-0.3,0.1-0.6,0.4
		v0c0,0-0.6,0.5-1,1.8c0,0,0,0.1-0.1,0.1l0,0.1l-0.1,0.1c-0.5,0.3-1.1,0.8-1.5,1.5c-0.6,1.1-0.4,2.4-0.4,2.5c0,0.2,0.2,0.4,0.4,0.5
		l6.3,3.1c0.2,0.1,0.4,0.1,0.6,0c0.2,0.1,0.4,0.1,0.6,0l6.3-3.1c0.2-0.1,0.4-0.3,0.4-0.5C20.5,27.7,20.7,26.5,20.1,25.3z"/>
	<path class="st0" d="M13.2,34.5C5.9,34.5,0,28.6,0,21.3c0-3.9,1.7-7.5,4.6-10C5,11,5.5,11.1,5.8,11.4c0.3,0.3,0.3,0.9-0.1,1.2
		c-2.6,2.2-4.1,5.4-4.1,8.8c0,6.4,5.2,11.5,11.5,11.5c6.4,0,11.5-5.2,11.5-11.5c0-3.4-1.5-6.6-4.1-8.8c-0.3-0.3-0.4-0.8-0.1-1.2
		c0.3-0.3,0.8-0.4,1.2-0.1c2.9,2.5,4.6,6.2,4.6,10C26.3,28.6,20.4,34.5,13.2,34.5"/>
</g>
</svg>
