<?xml version="1.0" encoding="utf-8"?>
<!-- Generator: Adobe Illustrator 21.1.0, SVG Export Plug-In . SVG Version: 6.00 Build 0)  -->
<svg version="1.1" xmlns="http://www.w3.org/2000/svg" xmlns:xlink="http://www.w3.org/1999/xlink" x="0px" y="0px"
	 viewBox="0 0 424.6 287.7" style="enable-background:new 0 0 424.6 287.7;" xml:space="preserve">
<style type="text/css">
	.st0{fill:#E5EEF0;}
	.st1{opacity:0.15;fill:#E5EEF0;}
</style>
<g id="Layer_2">
	<g>
		<path class="st0" d="M7,136.8c1-50.2,20.1-96,51-131.1l-5-5C37.8,17.9,25.6,37.3,16.6,58.4C6.1,83.3,0.5,109.6,0,136.8H7z"/>
		<path class="st0" d="M366,5c31.2,35.2,50.5,81.3,51.6,131.8h7c-0.5-27.1-6.1-53.5-16.6-78.3c-9.1-21.5-21.5-41.1-37-58.4L366,5z"
			/>
		<path class="st0" d="M417.1,155.8c-3.5,49.1-24.2,93.4-56.1,127l4.9,5c17.9-18.7,32-40.2,42-63.9c9.2-21.7,14.6-44.5,16.2-68
			H417.1z"/>
		<path class="st0" d="M63,282c-31.6-33.4-52-77.5-55.5-126.3h-7c1.6,23.5,7,46.3,16.2,68c9.9,23.5,23.8,44.7,41.4,63.2L63,282z"/>
	</g>
</g>
<g id="Layer_1">
	<g>
		<path class="st0" d="M280.9,197.5l5.1-5.1l16.2-16.2l-26.5-10.5c-3.9,10.7-8.4,20.3-13.2,28.1c-7,11.3-14.7,19.8-21.8,26.1
			l5.1,12.8l16.4-16.4l4.8-4.8l39.5,39.5l13.9-13.9L280.9,197.5z"/>
		<polygon class="st0" points="164.2,70.1 143.4,49.3 109.9,40.1 119.3,73.3 134.3,88.2 		"/>
	</g>
	<g>
		<path class="st1" d="M158.1,88.6l95.4,95.4c2.8-4.9,5.5-10.5,8-16.6l-88.1-88.1L158.1,88.6z"/>
		<path class="st1" d="M280.9,197.5l5.1-5.1l16.2-16.2l-26.5-10.5c-3.8,10.5-8.2,19.9-12.9,27.6l50.7,50.7l6.9-6.9L280.9,197.5z"/>
		<polygon class="st1" points="164.2,70.1 143.4,49.3 109.9,40.1 109.9,40.4 148.9,79.3 		"/>
	</g>
	<g>
		<polygon class="st0" points="279.9,49.2 259.1,70 288.9,88.2 303.9,73.2 313.4,40 		"/>
		<path class="st0" d="M160.7,193.7c-4.8-7.8-9.3-17.4-13.2-28l-26.4,10.4l16.2,16.2l5,5l-39.5,39.5l13.9,13.9l39.5-39.5l4.9,4.9
			l16.4,16.4l5-12.8C175.5,213.6,167.8,205.1,160.7,193.7z"/>
	</g>
	<g>
		<path class="st1" d="M161.7,167.4c2.5,6.1,5.1,11.7,8,16.6l95.4-95.4l-15.3-9.3L161.7,167.4z"/>
		<polygon class="st1" points="279.9,49.2 259.1,70 274.3,79.3 313.3,40.3 313.4,40 		"/>
		<path class="st1" d="M147.5,165.7l-26.4,10.4l16.2,16.2l5,5l-39.5,39.5l6.9,6.9l50.6-50.6C155.7,185.6,151.3,176.1,147.5,165.7z"
			/>
	</g>
	<path class="st0" d="M211.6,48.6l-72.5,44.1c1.5,33.8,12.4,74.3,27,97.7c20.1,32.3,45.5,40.1,45.5,40.1s25.4-7.8,45.5-40.1
		c14.6-23.4,25.5-63.9,27-97.7L211.6,48.6z M246.3,129.9c-0.9,0-1.7-0.2-2.3-0.6l-13.3,29.4h-11.7h-15h-11.7L179,129.4
		c-0.6,0.3-1.3,0.4-2,0.4c-2.6,0-4.6-2.1-4.6-4.6c0-2.6,2.1-4.6,4.6-4.6c2.6,0,4.6,2.1,4.6,4.6c0,1.1-0.4,2.1-1,2.9l20,15.9l10-26.9
		c-2.1-0.5-3.6-2.3-3.6-4.5c0-2.6,2.1-4.6,4.6-4.6c2.6,0,4.6,2.1,4.6,4.6c0,2.1-1.4,3.9-3.3,4.4l9.8,26.6l19.7-15.7
		c-0.5-0.8-0.9-1.7-0.9-2.7c0-2.6,2.1-4.6,4.6-4.6s4.6,2.1,4.6,4.6C250.9,127.8,248.8,129.9,246.3,129.9z"/>
</g>
</svg>
