<?xml version="1.0" encoding="utf-8"?>
<!-- Generator: Adobe Illustrator 21.1.0, SVG Export Plug-In . SVG Version: 6.00 Build 0)  -->
<svg version="1.1" id="Слой_4" xmlns="http://www.w3.org/2000/svg" xmlns:xlink="http://www.w3.org/1999/xlink" x="0px" y="0px"
	 viewBox="0 0 204.4 204.3" style="enable-background:new 0 0 204.4 204.3;" xml:space="preserve">
<style type="text/css">
	.st0{fill:#2BD9A4;}
</style>
<g>
	<path class="st0" d="M97.9,195.8c-25.1,0-50.2-9.5-69.3-28.6C10.2,148.7,0,124.1,0,97.9s10.2-50.8,28.7-69.3
		C66.9-9.5,129-9.5,167.2,28.6c0,0,0,0,0,0c38.2,38.2,38.2,100.3,0,138.5C148.1,186.3,123,195.8,97.9,195.8z M98,20
		C78,20,58,27.6,42.8,42.8C28.1,57.5,20,77.1,20,97.9c0,20.8,8.1,40.4,22.8,55.1c30.4,30.4,79.8,30.4,110.2,0s30.4-79.8,0-110.2
		C137.9,27.6,117.9,20,98,20z"/>
</g>
<g>
	<path class="st0" d="M194.4,204.3c-2.6,0-5.1-1-7.1-2.9l-34.2-34.2c-3.9-3.9-3.9-10.2,0-14.1c3.9-3.9,10.2-3.9,14.1,0l34.2,34.2
		c3.9,3.9,3.9,10.2,0,14.1C199.5,203.3,196.9,204.3,194.4,204.3z"/>
</g>
<g>
	<path class="st0" d="M129.3,88.1h-62c-5.5,0-10-4.5-10-10s4.5-10,10-10h62c5.5,0,10,4.5,10,10S134.9,88.1,129.3,88.1z"/>
</g>
<g>
	<path class="st0" d="M129.3,128.1h-62c-5.5,0-10-4.5-10-10s4.5-10,10-10h62c5.5,0,10,4.5,10,10S134.9,128.1,129.3,128.1z"/>
</g>
</svg>
