<?xml version="1.0" encoding="utf-8"?>
<!-- Generator: Adobe Illustrator 21.1.0, SVG Export Plug-In . SVG Version: 6.00 Build 0)  -->
<svg version="1.1" id="Layer_1" xmlns="http://www.w3.org/2000/svg" xmlns:xlink="http://www.w3.org/1999/xlink" x="0px" y="0px"
	 viewBox="0 0 60 60" style="enable-background:new 0 0 60 60;" xml:space="preserve">
<style type="text/css">
	
		.st0{display:none;clip-path:url(#SVGID_2_);fill:none;stroke:#000000;stroke-width:7;stroke-linecap:round;stroke-linejoin:round;stroke-miterlimit:10;}
	.st1{fill:#C5CDD9;}
</style>
<g>
	<defs>
		<rect id="SVGID_1_" x="7.3" y="0.7" width="52.3" height="52.3"/>
	</defs>
	<clipPath id="SVGID_2_">
		<use xlink:href="#SVGID_1_"  style="display:none;overflow:visible;"/>
	</clipPath>
	<line class="st0" x1="56.1" y1="26.8" x2="10.8" y2="26.8"/>
	<line class="st0" x1="33.4" y1="49.5" x2="33.4" y2="4.2"/>
</g>
<g>
	<path class="st1" d="M24.3,40.8c-1.3,0-2.6-0.5-3.5-1.5c-2-2-2-5.1,0-7.1L51.5,1.5c2-2,5.1-2,7.1,0c2,2,2,5.1,0,7.1L27.8,39.3
		C26.8,40.3,25.5,40.8,24.3,40.8z"/>
</g>
<g>
	<path class="st1" d="M51.9,60H5c-2.8,0-5-2.2-5-5V8.1c0-2.8,2.2-5,5-5h23.4c2.8,0,5,2.2,5,5s-2.2,5-5,5H10V50h36.9V31.9
		c0-2.8,2.2-5,5-5s5,2.2,5,5V55C56.9,57.8,54.7,60,51.9,60z"/>
</g>
</svg>
