<?xml version="1.0" encoding="utf-8"?>
<!-- Generator: Adobe Illustrator 21.1.0, SVG Export Plug-In . SVG Version: 6.00 Build 0)  -->
<svg version="1.1" id="Layer_1" xmlns="http://www.w3.org/2000/svg" xmlns:xlink="http://www.w3.org/1999/xlink" x="0px" y="0px"
	 viewBox="0 0 60 60" style="enable-background:new 0 0 60 60;" xml:space="preserve">
<style type="text/css">
	.st0{fill:#E99B3F;}
</style>
<g>
	<path class="st0" d="M24.3,40.8c-1.3,0-2.6-0.5-3.5-1.5c-2-2-2-5.1,0-7.1L51.5,1.5c2-2,5.1-2,7.1,0s2,5.1,0,7.1L27.8,39.3
		C26.8,40.3,25.5,40.8,24.3,40.8z"/>
</g>
<g>
	<path class="st0" d="M51.9,60H5c-2.8,0-5-2.2-5-5V8.1c0-2.8,2.2-5,5-5h23.4c2.8,0,5,2.2,5,5s-2.2,5-5,5H10V50h36.9V31.9
		c0-2.8,2.2-5,5-5s5,2.2,5,5V55C56.9,57.8,54.7,60,51.9,60z"/>
</g>
</svg>
