<?xml version="1.0" encoding="utf-8"?>
<!-- Generator: Adobe Illustrator 21.1.0, SVG Export Plug-In . SVG Version: 6.00 Build 0)  -->
<svg version="1.1" xmlns="http://www.w3.org/2000/svg" xmlns:xlink="http://www.w3.org/1999/xlink" x="0px" y="0px"
	 viewBox="0 0 305.4 236.6" style="enable-background:new 0 0 305.4 236.6;" xml:space="preserve">
<style type="text/css">
	.st0{display:none;}
	.st1{display:inline;fill:none;stroke:#000000;stroke-width:20;stroke-miterlimit:10;}
	.st2{display:inline;stroke:#000000;stroke-width:20;stroke-miterlimit:10;}
	.st3{fill:#7DD9A3;}
	.st4{display:none;fill:none;stroke:#000000;stroke-width:20;stroke-miterlimit:10;}
	.st5{display:none;fill:none;stroke:#000000;stroke-width:20;stroke-linecap:square;stroke-miterlimit:10;}
</style>
<g id="Layer_2" class="st0">
	<line class="st1" x1="261.5" y1="200.7" x2="76.1" y2="15.3"/>
	<line class="st1" x1="76.1" y1="200.7" x2="261.5" y2="15.3"/>
	<circle class="st2" cx="168.8" cy="108" r="43.1"/>
	<circle class="st1" cx="89.8" cy="28" r="18"/>
	<circle class="st1" cx="249.8" cy="28" r="18"/>
	<circle class="st1" cx="89.8" cy="187" r="18"/>
	<circle class="st1" cx="249.8" cy="187" r="18"/>
</g>
<g id="Слой_2">
	<g>
		<path class="st3" d="M121.9,76.8V17.2c0-0.6,0.4-1,1-1h59.6c0.6,0,1,0.4,1,1v59.6c0,0.6-0.4,1-1,1h-59.6
			C122.4,77.8,121.9,77.3,121.9,76.8z"/>
		<path class="st3" d="M182.5,87.8h-59.6c-6.1,0-11-4.9-11-11V17.2c0-6.1,4.9-11,11-11h59.6c6.1,0,11,4.9,11,11v59.6
			C193.5,82.8,188.5,87.8,182.5,87.8z M131.9,67.8h41.6V26.2h-41.6V67.8z"/>
	</g>
	<g>
		<path class="st3" d="M121.9,225.6v-59.6c0-0.6,0.4-1,1-1h59.6c0.6,0,1,0.4,1,1v59.6c0,0.6-0.4,1-1,1h-59.6
			C122.4,226.6,121.9,226.2,121.9,225.6z"/>
		<path class="st3" d="M182.5,236.6h-59.6c-6.1,0-11-4.9-11-11v-59.6c0-6.1,4.9-11,11-11h59.6c6.1,0,11,4.9,11,11v59.6
			C193.5,231.7,188.5,236.6,182.5,236.6z M131.9,216.6h41.6v-41.6h-41.6V216.6z"/>
	</g>
	<g>
		<path class="st3" d="M233.8,225.6v-59.6c0-0.6,0.4-1,1-1h59.6c0.6,0,1,0.4,1,1v59.6c0,0.6-0.4,1-1,1h-59.6
			C234.3,226.6,233.8,226.2,233.8,225.6z"/>
		<path class="st3" d="M294.4,236.6h-59.6c-6.1,0-11-4.9-11-11v-59.6c0-6.1,4.9-11,11-11h59.6c6.1,0,11,4.9,11,11v59.6
			C305.4,231.7,300.5,236.6,294.4,236.6z M243.8,216.6h41.6v-41.6h-41.6V216.6z"/>
	</g>
	<g>
		<path class="st3" d="M10,225.6v-59.6c0-0.6,0.4-1,1-1h59.6c0.6,0,1,0.4,1,1v59.6c0,0.6-0.4,1-1,1H11C10.4,226.6,10,226.2,10,225.6
			z"/>
		<path class="st3" d="M70.6,236.6H11c-6.1,0-11-4.9-11-11v-59.6c0-6.1,4.9-11,11-11h59.6c6.1,0,11,4.9,11,11v59.6
			C81.6,231.7,76.6,236.6,70.6,236.6z M20,216.6h41.6v-41.6H20V216.6z"/>
	</g>
	<line class="st4" x1="252.7" y1="160.4" x2="252.7" y2="122"/>
	<g>
		<rect x="142.7" y="28" class="st3" width="20" height="137.1"/>
	</g>
	<line class="st4" x1="52.7" y1="160.4" x2="52.7" y2="122"/>
	<line class="st5" x1="252.7" y1="121.9" x2="52.7" y2="121.9"/>
	<g>
		<path class="st3" d="M274.6,182.1h-20V132H50.8v50.1h-20v-58.8c0-6.2,5.1-11.3,11.3-11.3h221.3c6.2,0,11.3,5.1,11.3,11.3V182.1z"
			/>
	</g>
</g>
</svg>
